<?xml version="1.0" encoding="utf-8"?>
<svg width="256px" height="256px" viewBox="0 0 73 73" version="1.1" xmlns="http://www.w3.org/2000/svg" fill="#000000" stroke="#000000">
  <g id="SVGRepo_bgCarrier" stroke-width="0"/>
  <g id="SVGRepo_tracerCarrier" stroke-linecap="round" stroke-linejoin="round"/>
  <g id="SVGRepo_iconCarrier">
    <title>fundamentals/css/syntax</title>
    <desc>Created with Sketch.</desc>
    <g id="fundamentals/css/syntax" stroke="none" stroke-width="1" fill="none" fill-rule="evenodd">
      <g id="container" transform="translate(2.000000, 2.000000)" fill-rule="nonzero">
        <rect id="mask" stroke="#102693" stroke-width="2" fill="#3366FF" x="-1" y="-1" width="71" height="71" rx="14"/>
        <path d="M14,0 L45.2700196,0 L26.6005961,69 L14,69 C6.2680135,69 6.27596577e-15,62.7319865 5.32907052e-15,55 L5.32907052e-15,14 C4.38217527e-15,6.2680135 6.2680135,3.19669972e-15 14,1.77635684e-15 Z" id="mask" fill="#254EDC"/>
      </g>
      <path d="M 23.498 56 C 21.424 56 20.031 55.53 19.32 54.591 C 18.609 53.663 18.254 51.79 18.254 48.972 L 18.254 44.876 C 18.254 43.987 18.2 43.196 18.096 42.504 C 17.993 41.813 17.822 41.276 17.59 40.895 C 17.362 40.526 17.04 40.255 16.623 40.077 C 16.204 39.898 15.715 39.808 15.154 39.808 L 14 39.808 L 14 36.171 L 15.154 36.171 C 16.326 36.171 17.136 35.809 17.59 35.086 C 18.033 34.35 18.254 33.022 18.254 31.104 L 18.254 27.01 C 18.254 24.19 18.609 22.317 19.32 21.391 C 20.014 20.464 21.406 20 23.498 20 L 25.38 20 L 25.38 23.62 L 23.838 23.62 C 22.959 23.62 22.376 23.886 22.093 24.42 C 21.799 24.965 21.653 26.14 21.653 27.943 L 21.653 31.923 C 21.653 34.018 21.448 35.492 21.038 36.343 C 20.629 37.18 19.897 37.726 18.842 37.98 C 19.889 38.248 20.62 38.813 21.038 39.677 C 21.448 40.526 21.653 42 21.653 44.095 L 21.653 48.001 C 21.653 49.815 21.799 51.002 22.093 51.562 C 22.376 52.096 22.959 52.362 23.838 52.362 L 25.38 52.362 L 25.38 56 L 23.498 56 Z M 46.62 52.362 L 48.139 52.362 C 49.009 52.362 49.594 52.088 49.895 51.542 C 50.197 50.997 50.346 49.815 50.346 48.001 L 50.346 44.095 C 50.346 42 50.552 40.526 50.961 39.677 C 51.179 39.231 51.474 38.869 51.846 38.59 C 52.218 38.312 52.65 38.108 53.145 37.98 C 52.084 37.726 51.355 37.18 50.961 36.343 C 50.552 35.492 50.346 34.018 50.346 31.923 L 50.346 27.943 C 50.346 26.164 50.201 24.998 49.907 24.438 C 49.748 24.145 49.514 23.936 49.205 23.81 C 48.895 23.682 48.54 23.62 48.139 23.62 L 46.62 23.62 L 46.62 20 L 48.502 20 C 50.584 20 51.973 20.464 52.668 21.391 C 53.363 22.33 53.708 24.204 53.708 27.01 L 53.708 31.104 C 53.708 32.133 53.769 32.962 53.892 33.589 C 54.011 34.219 54.181 34.712 54.398 35.068 C 54.617 35.422 54.922 35.695 55.315 35.886 C 55.708 36.077 56.22 36.171 56.846 36.171 L 58 36.171 L 58 39.808 L 56.846 39.808 C 55.666 39.808 54.849 40.177 54.398 40.914 C 53.94 41.65 53.708 42.971 53.708 44.876 L 53.708 48.972 C 53.708 51.778 53.363 53.652 52.668 54.591 C 51.957 55.53 50.568 56 48.502 56 L 46.62 56 L 46.62 52.362 Z" id="{-}" fill="#FFFFFF"/>
      <text id="..." style="fill: rgb(255, 255, 255); font-family: Hack-Bold, Hack; font-size: 12px; font-weight: 700; letter-spacing: -1.8px; white-space: pre;"><tspan> </tspan><tspan x="27.4631" y="41" dx="0.374 6.372 0.375" dy="0 0.281 0.0939998">.. </tspan><tspan x="38.3123" y="41" dx="4.217 0.187" dy="0.376">. </tspan></text>
    </g>
  </g>
</svg>