<?xml version="1.0" standalone="no"?>
<!DOCTYPE svg PUBLIC "-//W3C//DTD SVG 20010904//EN"
 "http://www.w3.org/TR/2001/REC-SVG-20010904/DTD/svg10.dtd">
<svg version="1.0" xmlns="http://www.w3.org/2000/svg"
 width="1920.000000pt" height="870.000000pt" viewBox="0 0 1920.000000 870.000000"
 preserveAspectRatio="xMidYMid meet">

<g transform="translate(0.000000,870.000000) scale(0.100000,-0.100000)"
fill="#000000" stroke="none">
<path d="M0 8690 c0 -7 3207 -10 9600 -10 6393 0 9600 3 9600 10 0 7 -3207 10
-9600 10 -6393 0 -9600 -3 -9600 -10z"/>
<path d="M7890 8190 l0 -110 53 0 c71 0 99 16 115 68 12 35 12 49 0 84 -16 52
-44 68 -115 68 l-53 0 0 -110z m121 54 c7 -9 14 -33 14 -54 0 -51 -19 -70 -66
-70 l-39 0 0 70 0 70 39 0 c23 0 44 -6 52 -16z"/>
<path d="M8860 8285 c0 -8 7 -15 15 -15 8 0 15 7 15 15 0 8 -7 15 -15 15 -8 0
-15 -7 -15 -15z"/>
<path d="M9180 8190 c0 -91 3 -110 15 -110 11 0 15 12 15 45 l0 45 50 0 c43 0
50 3 50 20 0 17 -7 20 -50 20 -47 0 -50 2 -50 25 0 24 3 25 55 25 48 0 55 2
55 20 0 18 -7 20 -70 20 l-70 0 0 -110z"/>
<path d="M10008 8271 c-29 -26 -33 -35 -33 -80 0 -41 5 -55 26 -77 36 -35 94
-42 137 -15 27 18 32 26 32 61 l0 40 -45 0 c-38 0 -45 -3 -45 -20 0 -15 7 -20
25 -20 28 0 34 -24 9 -34 -55 -21 -104 9 -104 64 0 61 66 93 104 51 19 -21 46
-18 46 4 0 23 -51 55 -86 55 -23 0 -44 -9 -66 -29z"/>
<path d="M10983 8260 c-3 -11 -9 -20 -14 -20 -5 0 -9 -7 -9 -15 0 -8 5 -15 10
-15 6 0 10 -24 10 -53 0 -29 5 -58 12 -65 17 -17 58 -15 58 3 0 8 -7 15 -15
15 -11 0 -15 12 -15 50 0 38 4 50 15 50 8 0 15 7 15 15 0 8 -7 15 -15 15 -8 0
-15 9 -15 20 0 12 -7 20 -16 20 -9 0 -18 -9 -21 -20z"/>
<path d="M8080 8235 c0 -2 11 -34 25 -71 30 -81 31 -104 5 -111 -29 -8 -25
-33 5 -33 14 0 30 9 39 23 12 18 76 182 76 194 0 2 -8 3 -18 3 -13 0 -23 -15
-36 -55 -9 -30 -19 -55 -21 -55 -2 0 -12 25 -21 55 -13 40 -23 55 -36 55 -10
0 -18 -2 -18 -5z"/>
<path d="M8260 8160 c0 -73 2 -80 20 -80 16 0 19 8 22 63 3 59 4 62 28 62 24
0 25 -3 28 -62 3 -55 6 -63 22 -63 18 0 20 7 20 64 0 87 -27 114 -83 85 -16
-9 -22 -9 -25 0 -2 6 -10 11 -18 11 -11 0 -14 -18 -14 -80z"/>
<path d="M8449 8222 l-22 -19 21 -5 c12 -4 22 -2 22 3 0 5 12 9 26 9 37 0 28
-32 -12 -41 -44 -9 -54 -17 -54 -45 0 -33 40 -52 75 -36 15 7 25 8 25 2 0 -6
8 -10 18 -10 15 0 17 8 12 70 -4 47 -10 74 -20 80 -24 15 -66 11 -91 -8z m71
-87 c0 -19 -24 -29 -47 -20 -17 6 -17 7 1 21 26 18 46 18 46 -1z"/>
<path d="M8590 8160 c0 -73 2 -80 20 -80 18 0 20 7 20 54 0 56 17 83 45 72 11
-4 15 -21 15 -66 0 -53 2 -60 20 -60 16 0 19 8 22 63 3 56 5 62 26 65 21 3 22
0 22 -62 0 -59 2 -66 20 -66 18 0 20 7 20 64 0 45 -5 69 -16 80 -18 19 -45 21
-62 4 -9 -9 -17 -8 -37 2 -19 10 -30 11 -50 2 -15 -7 -25 -8 -25 -2 0 6 -9 10
-20 10 -18 0 -20 -7 -20 -80z"/>
<path d="M8860 8160 c0 -64 3 -80 15 -80 12 0 15 16 15 80 0 64 -3 80 -15 80
-12 0 -15 -16 -15 -80z"/>
<path d="M8965 8228 c-29 -16 -35 -28 -35 -70 0 -64 67 -98 119 -61 23 16 23
17 5 23 -10 4 -26 2 -35 -3 -29 -18 -49 -1 -49 43 0 45 20 61 50 42 10 -6 22
-7 31 -1 12 8 11 12 -5 24 -23 18 -53 19 -81 3z"/>
<path d="M9366 8217 c-53 -53 -21 -132 53 -132 48 0 70 18 77 66 8 45 -18 78
-68 85 -30 5 -41 2 -62 -19z m83 -21 c31 -37 -9 -103 -46 -80 -37 23 -24 94
17 94 10 0 23 -6 29 -14z"/>
<path d="M9530 8160 c0 -64 3 -80 15 -80 10 0 15 10 15 29 0 58 12 92 36 102
13 4 24 13 24 19 0 14 -33 13 -48 -2 -9 -9 -12 -9 -12 0 0 7 -7 12 -15 12 -12
0 -15 -16 -15 -80z"/>
<path d="M9640 8160 c0 -73 2 -80 20 -80 16 0 19 8 22 63 3 56 5 62 26 65 21
3 22 0 22 -62 0 -59 2 -66 20 -66 16 0 19 8 22 62 2 52 6 63 22 66 26 5 36
-15 36 -75 0 -40 4 -53 15 -53 12 0 15 14 15 70 0 64 -2 71 -24 81 -17 8 -29
8 -44 0 -15 -8 -28 -8 -46 1 -20 8 -32 8 -51 0 -15 -7 -25 -8 -25 -2 0 6 -7
10 -15 10 -12 0 -15 -16 -15 -80z"/>
<path d="M10220 8220 c-13 -13 -20 -33 -20 -60 0 -66 54 -100 112 -69 16 9 18
13 7 20 -8 4 -24 6 -37 2 -22 -5 -52 11 -52 28 0 5 25 9 56 9 l56 0 -6 28
c-14 57 -78 80 -116 42z m78 -27 c2 -9 -8 -13 -32 -13 -28 0 -34 3 -29 16 7
18 54 16 61 -3z"/>
<path d="M10370 8160 c0 -64 3 -80 15 -80 11 0 15 13 15 53 0 55 12 77 41 77
22 0 29 -20 29 -81 0 -37 4 -49 15 -49 12 0 15 14 15 70 0 65 -2 71 -25 82
-19 8 -31 8 -50 0 -15 -7 -25 -8 -25 -2 0 6 -7 10 -15 10 -12 0 -15 -16 -15
-80z"/>
<path d="M10561 8223 c-12 -10 -24 -35 -27 -55 -5 -30 -2 -41 19 -62 28 -28
65 -33 99 -15 28 15 5 30 -35 22 -19 -4 -32 -1 -38 8 -16 25 -10 29 41 29 47
0 50 2 50 25 0 55 -66 83 -109 48z m73 -28 c4 -12 -3 -15 -29 -15 -33 0 -43 8
-28 23 12 13 51 7 57 -8z"/>
<path d="M10700 8160 c0 -73 2 -80 20 -80 17 0 20 7 20 49 0 62 7 81 31 81 10
0 19 7 19 15 0 18 -21 20 -38 3 -9 -9 -12 -9 -12 0 0 7 -9 12 -20 12 -18 0
-20 -7 -20 -80z"/>
<path d="M10831 8224 c-17 -12 -20 -19 -10 -24 7 -5 20 -3 29 2 21 13 53 3 48
-14 -3 -7 -18 -15 -35 -19 -42 -8 -53 -17 -53 -43 0 -37 25 -52 63 -38 21 8
33 9 35 2 2 -5 11 -10 20 -10 15 0 17 9 12 70 -4 47 -10 74 -20 80 -23 15 -63
12 -89 -6z m67 -91 c-2 -11 -12 -18 -27 -18 -29 0 -40 21 -14 28 35 9 44 7 41
-10z"/>
<path d="M11086 8217 c-53 -53 -21 -132 53 -132 48 0 70 18 77 66 8 45 -18 78
-68 85 -30 5 -41 2 -62 -19z m83 -21 c31 -37 -9 -103 -46 -80 -37 23 -24 94
17 94 10 0 23 -6 29 -14z"/>
<path d="M11250 8160 c0 -64 3 -80 15 -80 11 0 15 12 15 44 0 58 8 76 36 87
13 4 24 13 24 19 0 14 -33 13 -48 -2 -9 -9 -12 -9 -12 0 0 7 -7 12 -15 12 -12
0 -15 -16 -15 -80z"/>
<path d="M492 7352 c-2 -69 -22 -92 -49 -56 -14 18 -14 18 -11 -6 2 -16 10
-26 23 -28 39 -4 46 11 42 84 l-3 69 -2 -63z"/>
<path d="M956 7394 c-9 -8 -16 -19 -16 -24 0 -16 30 -38 60 -45 21 -5 30 -13
30 -26 0 -25 -55 -27 -69 -2 -11 21 -26 11 -18 -11 15 -38 107 -27 107 13 0
23 -19 40 -57 50 -15 4 -28 14 -28 22 0 21 47 24 62 3 18 -25 26 -12 7 14 -18
26 -56 29 -78 6z"/>
<path d="M1193 7335 c0 -65 1 -72 7 -37 6 42 25 66 42 56 4 -3 8 -25 8 -50 0
-24 5 -44 10 -44 6 0 10 22 10 49 0 52 -14 67 -51 56 -13 -5 -19 1 -22 22 -2
15 -4 -8 -4 -52z"/>
<path d="M11880 7335 c0 -43 4 -75 10 -75 6 0 10 16 10 35 0 32 2 35 30 35 17
0 30 5 30 10 0 6 -13 10 -30 10 -23 0 -30 4 -30 20 0 16 7 20 35 20 19 0 35 5
35 10 0 6 -20 10 -45 10 l-45 0 0 -75z"/>
<path d="M540 7355 c-16 -19 0 -40 35 -49 28 -7 33 -21 10 -30 -8 -3 -22 2
-30 11 -20 19 -33 9 -15 -12 16 -19 54 -19 70 0 18 22 6 42 -29 50 -32 7 -39
19 -21 30 6 4 18 1 26 -6 16 -13 30 -6 19 10 -9 16 -51 13 -65 -4z"/>
<path d="M656 7354 c-34 -33 -7 -98 37 -92 12 2 28 15 36 29 13 24 13 29 -2
53 -20 29 -48 34 -71 10z m52 -6 c30 -30 -1 -94 -33 -68 -25 20 -13 80 15 80
3 0 11 -5 18 -12z"/>
<path d="M760 7313 c0 -29 5 -53 10 -53 6 0 10 17 10 38 0 41 15 63 36 55 9
-3 14 -21 14 -49 0 -24 5 -44 10 -44 15 0 12 86 -3 98 -7 6 -27 10 -45 10 -32
-1 -32 -1 -32 -55z"/>
<path d="M1092 7358 c-16 -16 -16 -70 0 -86 17 -17 44 -15 63 4 22 22 10 31
-14 10 -17 -16 -20 -16 -35 -1 -9 9 -16 23 -16 30 0 7 7 21 16 30 15 15 18 15
35 -1 17 -15 19 -15 19 -2 0 27 -47 37 -68 16z"/>
<path d="M1312 7358 c-7 -7 -12 -26 -12 -43 0 -17 5 -36 12 -43 17 -17 53 -15
68 3 18 21 5 31 -15 12 -17 -18 -45 -12 -45 9 0 9 12 14 35 14 27 0 35 4 35
18 0 24 -19 42 -45 42 -12 0 -26 -5 -33 -12z m58 -24 c0 -8 -10 -14 -25 -14
-26 0 -35 25 -12 33 18 6 37 -3 37 -19z"/>
<path d="M1420 7314 c0 -30 5 -54 10 -54 6 0 10 20 10 44 0 28 5 46 14 49 21
8 26 -2 26 -50 0 -23 5 -43 10 -43 6 0 10 17 10 39 0 42 22 72 36 49 5 -7 11
-31 15 -53 6 -36 7 -35 6 15 l-2 55 -67 1 -68 1 0 -53z"/>
<path d="M1600 7355 c-14 -17 0 -21 16 -5 12 12 44 3 44 -11 0 -5 -15 -12 -32
-17 -26 -6 -33 -14 -33 -33 0 -21 4 -24 43 -25 l42 -1 0 42 c0 22 -5 46 -12
53 -17 17 -53 15 -68 -3z m60 -55 c0 -12 -35 -31 -44 -23 -15 15 -4 33 19 33
14 0 25 -4 25 -10z"/>
<path d="M12012 7358 c-7 -7 -12 -26 -12 -43 0 -36 15 -55 45 -55 30 0 45 19
45 55 0 36 -15 55 -45 55 -12 0 -26 -5 -33 -12z m58 -43 c0 -20 -6 -35 -15
-39 -16 -6 -45 18 -45 39 0 21 29 45 45 39 9 -4 15 -19 15 -39z"/>
<path d="M12120 7313 c0 -66 18 -70 22 -5 2 31 7 46 16 45 6 -2 12 1 12 7 0 5
-11 9 -25 8 -23 -2 -25 -6 -25 -55z"/>
<path d="M12190 7314 c0 -30 5 -54 10 -54 6 0 10 20 10 44 0 28 5 46 14 49 21
8 26 -2 26 -50 0 -23 5 -43 10 -43 6 0 10 17 10 39 0 77 44 73 53 -4 3 -28 4
-24 3 15 l-1 55 -67 1 -68 1 0 -53z"/>
<path d="M1064 7016 c-3 -14 -4 -33 -1 -43 3 -10 5 -4 6 14 1 19 8 36 19 42
16 10 16 10 0 11 -10 0 -20 -10 -24 -24z"/>
<path d="M634 7008 c-4 -7 -3 -8 4 -4 9 5 12 -6 12 -38 0 -34 -4 -46 -17 -49
-10 -3 0 -5 22 -5 22 0 32 2 23 5 -14 3 -18 15 -18 54 0 47 -11 62 -26 37z"/>
<path d="M1064 6915 c1 -31 5 -41 21 -43 18 -4 19 -3 3 10 -9 7 -19 27 -21 43
-3 21 -4 18 -3 -10z"/>
<path d="M1430 6778 c0 -19 2 -20 10 -8 13 19 13 30 0 30 -5 0 -10 -10 -10
-22z"/>
<path d="M1460 6786 c0 -8 5 -18 10 -21 6 -3 10 3 10 14 0 12 -4 21 -10 21 -5
0 -10 -6 -10 -14z"/>
<path d="M1547 6793 c-4 -3 -7 -14 -7 -24 0 -10 -8 -20 -17 -22 -16 -4 -16 -5
-1 -6 12 -1 18 -12 21 -38 l4 -38 1 37 c2 29 6 37 25 41 l22 4 -22 2 c-13 0
-23 8 -23 16 0 9 10 20 23 25 21 8 21 9 1 9 -11 1 -24 -2 -27 -6z"/>
<path d="M2020 6790 c0 -5 5 -10 10 -10 6 0 10 5 10 10 0 6 -4 10 -10 10 -5 0
-10 -4 -10 -10z"/>
<path d="M2203 6793 c13 -4 17 -15 17 -58 0 -43 -4 -54 -17 -58 -10 -3 0 -5
22 -5 22 0 32 2 23 5 -15 4 -18 16 -18 64 0 55 -2 59 -22 58 -17 -1 -19 -2 -5
-6z"/>
<path d="M2390 6780 c0 -11 5 -20 10 -20 6 0 10 9 10 20 0 11 -4 20 -10 20 -5
0 -10 -9 -10 -20z"/>
<path d="M2430 6780 c0 -11 2 -20 4 -20 2 0 6 9 9 20 3 11 1 20 -4 20 -5 0 -9
-9 -9 -20z"/>
<path d="M2580 6793 c0 -5 5 -15 10 -23 8 -12 10 -11 10 8 0 12 -4 22 -10 22
-5 0 -10 -3 -10 -7z"/>
<path d="M2620 6779 c0 -11 5 -17 10 -14 6 3 10 13 10 21 0 8 -4 14 -10 14 -5
0 -10 -9 -10 -21z"/>
<path d="M3060 6793 c0 -5 5 -15 10 -23 8 -12 10 -11 10 8 0 12 -4 22 -10 22
-5 0 -10 -3 -10 -7z"/>
<path d="M3100 6779 c0 -11 5 -17 10 -14 6 3 10 13 10 21 0 8 -4 14 -10 14 -5
0 -10 -9 -10 -21z"/>
<path d="M11860 6710 c0 -73 3 -90 15 -90 11 0 15 11 15 40 l0 40 40 0 c29 0
40 4 40 15 0 11 -11 15 -40 15 -33 0 -40 3 -40 20 0 17 7 20 45 20 33 0 45 4
45 15 0 12 -13 15 -60 15 l-60 0 0 -90z"/>
<path d="M2111 6778 c0 -9 -9 -19 -18 -21 -16 -4 -16 -5 -1 -6 12 -1 18 -12
20 -38 3 -32 7 -38 28 -40 25 -3 25 -3 3 7 -17 7 -23 18 -23 39 0 23 5 31 23
34 22 4 22 4 0 6 -12 0 -24 9 -26 19 -4 15 -5 15 -6 0z"/>
<path d="M626 6772 c-3 -6 2 -8 14 -5 33 9 36 -24 6 -56 -34 -36 -33 -41 12
-40 29 2 31 3 10 6 l-28 4 21 28 c12 16 19 37 17 47 -3 20 -42 32 -52 16z"/>
<path d="M1907 6773 c19 -4 23 -12 26 -56 l3 -52 2 52 c2 45 5 52 25 56 12 2
0 4 -28 4 -27 0 -40 -2 -28 -4z"/>
<path d="M2681 6723 c1 -32 4 -46 6 -31 3 18 12 28 26 31 l22 4 -22 2 c-35 2
-31 39 5 44 25 4 25 4 -5 6 l-33 1 1 -57z"/>
<path d="M1622 6748 c-29 -29 -3 -84 35 -76 25 5 40 52 23 72 -15 19 -41 21
-58 4z m43 -33 c0 -23 -4 -30 -20 -30 -21 0 -31 25 -21 51 11 28 41 12 41 -21z"/>
<path d="M1710 6713 c0 -24 5 -43 10 -43 6 0 10 16 10 35 0 39 25 59 42 34 8
-12 9 -11 5 1 -2 9 -16 15 -35 15 -31 1 -32 -1 -32 -42z"/>
<path d="M1801 6715 l1 -50 8 40 c5 22 4 44 -1 50 -5 5 -9 -11 -8 -40z"/>
<path d="M1829 6714 c4 -52 21 -59 21 -10 0 51 18 54 23 4 l4 -43 1 47 c2 45
1 47 -25 46 -27 -1 -28 -3 -24 -44z"/>
<path d="M2013 6753 c12 -3 17 -14 17 -38 0 -24 -5 -35 -17 -38 -10 -3 0 -5
22 -5 22 0 32 2 23 5 -13 3 -18 15 -18 44 0 34 -3 39 -22 38 -17 -1 -19 -2 -5
-6z"/>
<path d="M2288 6734 c-16 -34 0 -58 38 -61 27 -2 27 -1 5 5 -37 11 -38 32 -2
32 32 0 41 16 19 38 -20 20 -48 14 -60 -14z m52 1 c0 -8 -9 -15 -20 -15 -20 0
-26 11 -13 23 12 13 33 7 33 -8z"/>
<path d="M2500 6745 c0 -9 5 -15 11 -13 6 2 11 8 11 13 0 5 -5 11 -11 13 -6 2
-11 -4 -11 -13z"/>
<path d="M2776 6744 c-19 -18 -20 -28 -6 -55 21 -39 70 -16 70 32 0 38 -36 51
-64 23z m49 -29 c0 -23 -4 -30 -20 -30 -21 0 -31 25 -21 51 11 28 41 12 41
-21z"/>
<path d="M2872 6711 c1 -44 1 -45 5 -8 5 42 25 56 50 36 14 -12 16 -12 11 1
-3 9 -18 15 -36 16 -32 1 -32 1 -30 -45z"/>
<path d="M2962 6711 c1 -41 2 -42 5 -11 7 54 23 61 25 10 1 -41 2 -42 5 -10 7
53 23 62 23 12 0 -23 5 -42 11 -42 6 0 9 17 7 43 -3 41 -4 42 -40 43 l-38 1 2
-46z"/>
<path d="M12027 6747 c-10 -6 -20 -28 -23 -48 -5 -29 -2 -41 15 -58 28 -28 56
-27 86 4 30 30 31 54 4 89 -22 28 -55 34 -82 13z m67 -39 c14 -23 -3 -52 -32
-56 -23 -4 -37 26 -27 59 8 24 43 23 59 -3z"/>
<path d="M12150 6689 c0 -55 3 -69 15 -69 11 0 15 11 15 43 0 47 7 60 33 70
30 11 18 24 -23 24 l-40 0 0 -68z"/>
<path d="M12240 6689 c0 -55 3 -69 15 -69 11 0 15 11 15 43 0 50 12 72 34 64
12 -5 16 -20 16 -57 0 -37 4 -50 14 -50 11 0 16 15 18 53 3 44 6 52 23 52 17
0 20 -8 23 -52 2 -38 7 -53 18 -53 17 0 20 90 4 121 -12 21 -40 25 -58 7 -8
-8 -15 -8 -24 -1 -7 6 -32 11 -55 10 l-43 0 0 -68z"/>
<path d="M2500 6685 c0 -9 5 -15 11 -13 6 2 11 8 11 13 0 5 -5 11 -11 13 -6 2
-11 -4 -11 -13z"/>
<path d="M3180 6675 c0 -14 -5 -25 -12 -25 -6 0 -9 -2 -6 -5 3 -3 13 -3 22 1
17 7 23 54 6 54 -5 0 -10 -11 -10 -25z"/>
<path d="M1520 6540 c0 -11 5 -20 10 -20 6 0 10 9 10 20 0 11 -4 20 -10 20 -5
0 -10 -9 -10 -20z"/>
<path d="M1560 6539 c0 -11 5 -17 10 -14 6 3 10 13 10 21 0 8 -4 14 -10 14 -5
0 -10 -9 -10 -21z"/>
<path d="M1642 6548 c-7 -7 -12 -17 -12 -24 0 -7 -6 -15 -12 -17 -10 -4 -10
-6 0 -6 7 -1 12 -15 12 -36 0 -19 5 -35 10 -35 6 0 10 15 10 34 0 24 5 36 18
39 16 4 16 5 0 6 -27 2 -23 39 5 44 20 4 20 4 2 6 -12 0 -26 -4 -33 -11z"/>
<path d="M1730 6550 c0 -5 5 -10 10 -10 6 0 10 5 10 10 0 6 -4 10 -10 10 -5 0
-10 -4 -10 -10z"/>
<path d="M1913 6553 c13 -4 17 -15 17 -58 0 -43 -4 -54 -17 -58 -10 -3 0 -5
22 -5 22 0 32 2 23 5 -15 4 -18 16 -18 64 0 55 -2 59 -22 58 -17 -1 -19 -2 -5
-6z"/>
<path d="M2050 6540 c0 -13 -7 -20 -20 -20 -27 0 -45 -36 -32 -66 8 -17 19
-22 41 -22 l31 1 0 64 c0 35 -4 63 -10 63 -5 0 -10 -9 -10 -20z m-2 -62 c-4
-44 -38 -53 -38 -10 0 32 7 42 27 42 10 0 13 -10 11 -32z"/>
<path d="M2200 6538 c0 -19 2 -20 10 -8 13 19 13 30 0 30 -5 0 -10 -10 -10
-22z"/>
<path d="M2230 6546 c0 -8 5 -18 10 -21 6 -3 10 3 10 14 0 12 -4 21 -10 21 -5
0 -10 -6 -10 -14z"/>
<path d="M2418 6553 c7 -3 16 -2 19 1 4 3 -2 6 -13 5 -11 0 -14 -3 -6 -6z"/>
<path d="M639 6531 c33 -9 38 -29 9 -40 -15 -6 -17 -10 -7 -10 22 -1 43 25 35
44 -3 9 -17 15 -33 14 -27 -1 -27 -1 -4 -8z"/>
<path d="M1723 6513 c12 -3 17 -14 17 -38 0 -24 -5 -35 -17 -38 -10 -3 0 -5
22 -5 22 0 32 2 23 5 -13 3 -18 15 -18 44 0 34 -3 39 -22 38 -17 -1 -19 -2 -5
-6z"/>
<path d="M1808 6494 c-16 -34 0 -58 38 -61 27 -2 27 -1 5 5 -37 11 -38 32 -2
32 32 0 41 16 19 38 -20 20 -48 14 -60 -14z m52 1 c0 -8 -9 -15 -20 -15 -20 0
-26 11 -13 23 12 13 33 7 33 -8z"/>
<path d="M2107 6513 c-15 -14 -6 -34 20 -44 28 -10 23 -23 -12 -32 -12 -3 -8
-5 10 -4 39 3 47 33 11 47 -33 12 -34 34 -1 28 13 -3 22 -1 19 3 -6 11 -38 12
-47 2z"/>
<path d="M2310 6505 c0 -8 5 -15 10 -15 6 0 10 7 10 15 0 8 -4 15 -10 15 -5 0
-10 -7 -10 -15z"/>
<path d="M672 6460 c0 -14 2 -19 5 -12 2 6 2 18 0 25 -3 6 -5 1 -5 -13z"/>
<path d="M2310 6445 c0 -8 5 -15 10 -15 6 0 10 7 10 15 0 8 -4 15 -10 15 -5 0
-10 -7 -10 -15z"/>
<path d="M628 6433 c6 -2 18 -2 25 0 6 3 1 5 -13 5 -14 0 -19 -2 -12 -5z"/>
<path d="M2418 6393 c7 -3 16 -2 19 1 4 3 -2 6 -13 5 -11 0 -14 -3 -6 -6z"/>
<path d="M1834 6306 c-3 -14 -4 -33 -1 -43 3 -10 5 -4 6 14 1 19 8 36 19 42
16 10 16 10 0 11 -10 0 -20 -10 -24 -24z"/>
<path d="M646 6294 c-3 -8 -2 -12 4 -9 6 4 10 -7 10 -24 0 -25 -4 -31 -20 -31
-18 0 -19 3 -10 23 11 21 10 21 -4 3 -22 -28 -20 -36 9 -36 14 0 25 -5 25 -10
0 -6 6 -5 14 2 8 7 10 15 5 16 -5 2 -9 21 -9 43 0 39 -13 52 -24 23z"/>
<path d="M11862 6188 l-2 -78 43 1 42 2 -35 6 -35 6 -6 70 -5 70 -2 -77z"/>
<path d="M12269 6235 c-8 -39 6 -118 21 -123 12 -4 13 -2 3 9 -7 7 -13 30 -13
51 0 24 5 38 13 38 8 0 9 3 1 8 -6 4 -13 14 -16 22 -4 11 -6 10 -9 -5z"/>
<path d="M1834 6205 c1 -31 5 -41 21 -43 18 -4 19 -3 3 10 -9 7 -19 27 -21 43
-3 21 -4 18 -3 -10z"/>
<path d="M11963 6194 c-15 -24 -15 -29 -2 -53 10 -17 23 -26 39 -26 16 0 29 9
39 26 13 24 13 29 -2 53 -10 14 -26 26 -37 26 -11 0 -27 -12 -37 -26z m51 10
c22 -8 22 -70 0 -78 -35 -13 -60 44 -32 72 14 14 12 14 32 6z"/>
<path d="M12076 6204 c-9 -8 -16 -26 -16 -39 0 -23 23 -55 40 -55 21 0 40 14
40 29 -1 14 -2 14 -11 -1 -24 -42 -71 3 -50 48 13 28 36 31 50 7 6 -10 11 -13
11 -7 0 14 -21 34 -36 34 -7 0 -20 -7 -28 -16z"/>
<path d="M12173 6213 c-7 -2 -13 -9 -13 -15 0 -6 6 -6 15 2 15 12 55 5 55 -10
0 -6 -12 -13 -27 -16 -43 -10 -54 -23 -42 -45 5 -10 17 -19 26 -19 15 0 15 2
-2 13 -22 17 -14 33 20 39 26 5 34 -9 14 -29 -7 -7 -6 -12 5 -16 13 -5 16 2
16 36 0 58 -23 78 -67 60z"/>
<path d="M12323 6165 c0 -33 2 -45 4 -27 2 18 2 45 0 60 -2 15 -4 0 -4 -33z"/>
<path d="M12368 6209 c-25 -14 -24 -75 1 -89 27 -14 37 -13 55 6 29 29 10 95
-27 94 -7 0 -20 -5 -29 -11z m53 -23 c20 -43 -18 -85 -49 -54 -25 25 -8 78 25
78 7 0 18 -11 24 -24z"/>
<path d="M12462 6160 c1 -49 2 -50 5 -13 2 23 11 47 19 53 22 19 42 -4 47 -53
l4 -42 1 46 c2 53 -10 68 -50 66 -27 -2 -28 -4 -26 -57z"/>
<path d="M2012 6070 c0 -14 2 -19 5 -12 2 6 2 18 0 25 -3 6 -5 1 -5 -13z"/>
<path d="M2040 6070 c0 -11 5 -20 10 -20 6 0 10 9 10 20 0 11 -4 20 -10 20 -5
0 -10 -9 -10 -20z"/>
<path d="M2120 6080 c0 -5 5 -10 10 -10 6 0 10 5 10 10 0 6 -4 10 -10 10 -5 0
-10 -4 -10 -10z"/>
<path d="M2240 6071 c0 -12 -9 -21 -26 -25 -22 -6 -25 -11 -22 -44 3 -34 5
-37 36 -37 l32 -1 0 63 c0 35 -4 63 -10 63 -5 0 -10 -9 -10 -19z m-2 -63 c-3
-36 -30 -46 -36 -15 -5 26 5 47 23 47 12 0 15 -8 13 -32z"/>
<path d="M2290 6070 c0 -11 5 -20 10 -20 6 0 10 9 10 20 0 11 -4 20 -10 20 -5
0 -10 -9 -10 -20z"/>
<path d="M2330 6069 c0 -11 5 -17 10 -14 6 3 10 13 10 21 0 8 -4 14 -10 14 -5
0 -10 -9 -10 -21z"/>
<path d="M2492 6070 c0 -14 2 -19 5 -12 2 6 2 18 0 25 -3 6 -5 1 -5 -13z"/>
<path d="M2520 6076 c0 -8 5 -18 10 -21 6 -3 10 3 10 14 0 12 -4 21 -10 21 -5
0 -10 -6 -10 -14z"/>
<path d="M2680 6068 c0 -19 2 -20 10 -8 13 19 13 30 0 30 -5 0 -10 -10 -10
-22z"/>
<path d="M2717 6070 c3 -11 7 -20 9 -20 2 0 4 9 4 20 0 11 -4 20 -9 20 -5 0
-7 -9 -4 -20z"/>
<path d="M620 6045 c0 -20 5 -25 26 -25 20 0 25 -4 22 -22 -2 -14 -13 -25 -28
-29 -22 -6 -22 -7 -4 -8 45 -2 60 61 16 67 -31 5 -28 30 6 35 25 4 25 4 -5 6
-29 1 -33 -2 -33 -24z"/>
<path d="M2590 6059 c-13 -9 -12 -10 3 -5 14 5 17 -1 17 -39 0 -33 -4 -45 -17
-48 -10 -3 0 -5 22 -5 22 0 32 2 23 5 -14 3 -18 15 -18 54 0 51 -4 56 -30 38z"/>
<path d="M2108 6043 c19 -8 15 -71 -5 -76 -10 -3 0 -5 22 -5 22 0 34 2 28 5
-8 2 -13 22 -13 44 0 34 -3 39 -22 38 -13 0 -17 -3 -10 -6z"/>
<path d="M2410 6035 c0 -8 5 -15 10 -15 6 0 10 7 10 15 0 8 -4 15 -10 15 -5 0
-10 -7 -10 -15z"/>
<path d="M2410 5975 c0 -8 5 -15 10 -15 6 0 10 7 10 15 0 8 -4 15 -10 15 -5 0
-10 -7 -10 -15z"/>
<path d="M2794 5974 c4 -9 1 -23 -5 -30 -7 -8 -7 -14 -1 -14 16 0 35 29 28 45
-3 8 -10 15 -17 15 -6 0 -8 -7 -5 -16z"/>
<path d="M2012 5830 c0 -14 2 -19 5 -12 2 6 2 18 0 25 -3 6 -5 1 -5 -13z"/>
<path d="M2040 5830 c0 -11 5 -20 10 -20 6 0 10 9 10 20 0 11 -4 20 -10 20 -5
0 -10 -9 -10 -20z"/>
<path d="M2492 5830 c0 -14 2 -19 5 -12 2 6 2 18 0 25 -3 6 -5 1 -5 -13z"/>
<path d="M2520 5830 c0 -11 5 -20 10 -20 6 0 10 9 10 20 0 11 -4 20 -10 20 -5
0 -10 -9 -10 -20z"/>
<path d="M2782 5830 c0 -14 2 -19 5 -12 2 6 2 18 0 25 -3 6 -5 1 -5 -13z"/>
<path d="M2810 5836 c0 -8 5 -18 10 -21 6 -3 10 3 10 14 0 12 -4 21 -10 21 -5
0 -10 -6 -10 -14z"/>
<path d="M3073 5843 c13 -4 17 -15 17 -58 0 -43 -4 -54 -17 -58 -10 -3 -2 -5
17 -5 19 0 29 2 23 5 -9 3 -13 26 -13 64 0 55 -2 59 -22 58 -17 -1 -19 -2 -5
-6z"/>
<path d="M3450 5828 c0 -19 2 -20 10 -8 13 19 13 30 0 30 -5 0 -10 -10 -10
-22z"/>
<path d="M3487 5830 c3 -11 7 -20 9 -20 2 0 4 9 4 20 0 11 -4 20 -9 20 -5 0
-7 -9 -4 -20z"/>
<path d="M2111 5828 c0 -9 -9 -19 -18 -21 -16 -4 -16 -5 -1 -6 12 -1 18 -12
20 -38 3 -32 7 -38 28 -40 25 -3 25 -3 3 7 -17 7 -23 18 -23 39 0 23 5 31 23
34 22 4 22 4 0 6 -12 0 -24 9 -26 19 -4 15 -5 15 -6 0z"/>
<path d="M3361 5828 c0 -9 -7 -19 -13 -21 -10 -4 -10 -6 0 -6 6 -1 12 -12 12
-25 0 -39 11 -56 34 -55 14 0 16 2 6 6 -37 14 -42 69 -7 76 22 4 22 4 0 6 -12
0 -24 9 -26 19 -4 15 -5 15 -6 0z"/>
<path d="M632 5818 c-7 -7 -12 -16 -12 -22 0 -5 6 -3 13 6 6 9 21 18 32 21 20
5 20 5 0 6 -12 0 -26 -4 -33 -11z"/>
<path d="M12082 5818 c-25 -25 -13 -48 33 -68 50 -21 56 -34 24 -51 -18 -9
-27 -7 -50 10 -16 12 -29 17 -29 12 0 -20 49 -43 75 -37 53 13 43 63 -16 82
-38 13 -44 31 -16 48 15 9 22 7 38 -13 12 -14 19 -18 19 -9 0 20 -21 38 -45
38 -12 0 -26 -5 -33 -12z"/>
<path d="M12303 5755 c0 -44 2 -61 4 -37 2 23 2 59 0 80 -2 20 -4 1 -4 -43z"/>
<path d="M12539 5805 c-8 -39 6 -118 21 -123 12 -4 13 -2 3 9 -7 7 -13 30 -13
51 0 24 5 38 13 38 8 0 9 3 1 8 -6 4 -13 14 -16 22 -4 11 -6 10 -9 -5z"/>
<path d="M13109 5805 c-8 -39 6 -118 21 -123 12 -4 13 -2 3 9 -7 7 -13 30 -13
51 0 24 5 38 13 38 8 0 9 3 1 8 -6 4 -13 14 -16 22 -4 11 -6 10 -9 -5z"/>
<path d="M2195 5774 c20 -48 19 -71 -2 -83 -17 -10 -17 -10 0 -11 12 0 26 17
43 55 13 31 24 61 23 68 0 7 -8 -6 -18 -28 l-18 -40 -12 38 c-7 20 -17 37 -22
37 -5 0 -2 -16 6 -36z"/>
<path d="M2291 5741 c1 -36 4 -56 6 -43 3 14 12 22 24 22 26 0 47 45 32 68 -5
9 -22 17 -37 18 -26 1 -26 0 -25 -65z m47 27 c-4 -44 -38 -53 -38 -10 0 32 7
42 27 42 10 0 13 -10 11 -32z"/>
<path d="M2392 5798 c-31 -31 -3 -83 40 -75 21 4 21 4 -3 6 -15 0 -29 8 -33
16 -4 12 3 15 29 15 38 0 40 2 25 31 -12 21 -40 25 -58 7z m46 -15 c2 -8 -6
-13 -22 -13 -19 0 -24 4 -19 15 6 18 34 16 41 -2z"/>
<path d="M2600 5795 c0 -8 5 -15 10 -15 6 0 10 7 10 15 0 8 -4 15 -10 15 -5 0
-10 -7 -10 -15z"/>
<path d="M2877 5803 c-14 -14 -6 -34 18 -43 30 -11 32 -27 5 -33 -17 -4 -17
-4 2 -3 33 2 35 34 4 46 -33 12 -34 34 -1 28 13 -3 22 -1 19 3 -6 11 -38 12
-47 2z"/>
<path d="M2972 5798 c-15 -15 -16 -50 0 -66 7 -7 23 -11 38 -11 24 1 24 2 -4
8 -42 9 -46 31 -6 31 27 0 31 3 28 23 -3 25 -36 35 -56 15z m46 -15 c2 -8 -6
-13 -22 -13 -25 0 -33 10 -19 24 10 10 36 3 41 -11z"/>
<path d="M3158 5784 c-16 -34 0 -59 38 -60 27 -2 28 -2 2 3 -14 2 -29 11 -32
19 -4 10 3 14 29 14 38 0 40 2 25 31 -15 27 -48 24 -62 -7z m52 1 c0 -9 -9
-15 -25 -15 -18 0 -23 4 -19 15 4 8 15 15 25 15 10 0 19 -7 19 -15z"/>
<path d="M3262 5798 c-29 -29 -3 -85 35 -75 15 4 14 5 -4 6 -23 1 -39 33 -28
52 4 6 17 14 29 19 20 9 20 9 1 9 -12 1 -26 -4 -33 -11z"/>
<path d="M658 5780 c12 -5 22 -15 22 -21 0 -7 3 -9 6 -6 10 10 -16 37 -35 36
-11 0 -9 -3 7 -9z"/>
<path d="M12206 5774 c-23 -23 -20 -71 4 -84 24 -13 56 -5 64 15 7 20 -4 19
-20 -2 -10 -14 -17 -16 -30 -7 -34 20 -28 34 15 34 29 0 41 4 41 14 0 18 -27
46 -45 46 -7 0 -21 -7 -29 -16z m52 -17 c3 -13 -3 -17 -27 -17 -33 0 -39 8
-19 28 17 17 42 11 46 -11z"/>
<path d="M12346 5774 c-29 -28 -11 -94 25 -94 18 0 49 20 49 32 0 6 -8 4 -18
-5 -24 -22 -39 -21 -52 3 -10 18 -8 20 30 20 28 0 40 4 40 14 0 18 -27 46 -45
46 -7 0 -21 -7 -29 -16z m52 -6 c19 -19 14 -28 -18 -28 -18 0 -30 5 -30 13 0
28 27 36 48 15z"/>
<path d="M12458 5779 c-12 -6 -18 -22 -18 -45 0 -27 5 -37 25 -46 25 -11 55 2
55 24 0 5 -7 2 -16 -6 -19 -19 -26 -20 -42 -4 -16 16 -15 53 2 67 15 13 46 5
46 -12 0 -6 3 -7 6 -4 9 8 -15 37 -30 37 -6 0 -19 -5 -28 -11z"/>
<path d="M12647 5783 c-14 -13 -7 -25 8 -13 17 14 48 5 43 -13 -3 -6 -18 -14
-34 -17 -20 -4 -30 -12 -32 -28 -3 -23 0 -24 54 -26 31 -1 31 0 27 39 -3 22
-6 46 -9 53 -4 13 -46 17 -57 5z m41 -84 c-19 -13 -43 -6 -43 11 0 20 49 31
53 12 2 -8 -2 -19 -10 -23z"/>
<path d="M12742 5730 c1 -49 2 -50 5 -13 2 23 11 47 19 53 22 19 42 -4 47 -53
l4 -42 1 46 c2 53 -10 68 -50 66 -27 -2 -28 -4 -26 -57z"/>
<path d="M12906 5774 c-29 -28 -11 -94 25 -94 6 0 19 5 30 10 36 20 16 100
-26 100 -7 0 -21 -7 -29 -16z m52 -6 c30 -30 -2 -93 -36 -71 -21 13 -27 50
-12 69 15 17 32 18 48 2z"/>
<path d="M13002 5710 c0 -41 3 -63 5 -48 3 22 9 26 31 25 20 -2 29 5 40 26 19
40 -5 77 -48 74 l-30 -2 2 -75z m52 64 c22 -8 22 -70 0 -78 -35 -13 -60 44
-32 72 14 14 12 14 32 6z"/>
<path d="M13163 5735 c0 -33 2 -45 4 -27 2 18 2 45 0 60 -2 15 -4 0 -4 -33z"/>
<path d="M13208 5779 c-25 -14 -24 -75 1 -89 27 -14 37 -13 55 6 29 29 10 95
-27 94 -7 0 -20 -5 -29 -11z m53 -23 c20 -43 -18 -85 -49 -54 -25 25 -8 78 25
78 7 0 18 -11 24 -24z"/>
<path d="M13302 5730 c1 -49 2 -50 5 -13 2 23 11 47 19 53 22 19 42 -4 47 -53
l4 -42 1 46 c2 53 -10 68 -50 66 -27 -2 -28 -4 -26 -57z"/>
<path d="M610 5769 c0 -5 5 -7 10 -4 6 3 10 8 10 11 0 2 -4 4 -10 4 -5 0 -10
-5 -10 -11z"/>
<path d="M18630 5762 c0 -5 11 -19 25 -32 l26 -24 26 27 c30 30 24 50 -7 22
-19 -17 -21 -17 -38 -2 -20 19 -32 22 -32 9z"/>
<path d="M623 5740 c5 -18 35 -26 50 -11 7 7 3 8 -13 4 -13 -4 -26 0 -32 8 -8
12 -9 11 -5 -1z"/>
<path d="M2600 5735 c0 -8 5 -15 10 -15 6 0 10 7 10 15 0 8 -4 15 -10 15 -5 0
-10 -7 -10 -15z"/>
<path d="M3564 5734 c4 -9 1 -23 -5 -30 -7 -8 -7 -14 -1 -14 16 0 35 29 28 45
-3 8 -10 15 -17 15 -6 0 -8 -7 -5 -16z"/>
<path d="M11410 5660 c0 -6 33 -10 80 -10 47 0 80 4 80 10 0 6 -33 10 -80 10
-47 0 -80 -4 -80 -10z"/>
<path d="M2012 5590 c0 -14 2 -19 5 -12 2 6 2 18 0 25 -3 6 -5 1 -5 -13z"/>
<path d="M2040 5590 c0 -11 5 -20 10 -20 6 0 10 9 10 20 0 11 -4 20 -10 20 -5
0 -10 -9 -10 -20z"/>
<path d="M2108 5603 c7 -3 12 -25 12 -58 0 -43 -4 -54 -17 -58 -10 -3 0 -5 22
-5 22 0 34 2 28 5 -9 3 -13 26 -13 64 0 55 -2 59 -22 58 -13 0 -17 -3 -10 -6z"/>
<path d="M2291 5548 c-1 -65 0 -68 22 -68 13 0 28 5 35 12 28 28 2 88 -32 75
-10 -4 -16 2 -19 21 -2 15 -5 -3 -6 -40z m52 -7 c6 -23 -10 -51 -28 -51 -15 0
-22 50 -8 63 12 13 31 7 36 -12z"/>
<path d="M2493 5603 c13 -4 17 -15 17 -58 0 -43 -4 -54 -17 -58 -10 -3 0 -5
22 -5 22 0 32 2 23 5 -15 4 -18 16 -18 64 0 55 -2 59 -22 58 -17 -1 -19 -2 -5
-6z"/>
<path d="M2580 5590 c0 -11 5 -20 10 -20 6 0 10 9 10 20 0 11 -4 20 -10 20 -5
0 -10 -9 -10 -20z"/>
<path d="M2620 5589 c0 -11 5 -17 10 -14 6 3 10 13 10 21 0 8 -4 14 -10 14 -5
0 -10 -9 -10 -21z"/>
<path d="M2782 5590 c0 -14 2 -19 5 -12 2 6 2 18 0 25 -3 6 -5 1 -5 -13z"/>
<path d="M2810 5596 c0 -8 5 -18 10 -21 6 -3 10 3 10 14 0 12 -4 21 -10 21 -5
0 -10 -6 -10 -14z"/>
<path d="M3370 5600 c0 -5 5 -10 10 -10 6 0 10 5 10 10 0 6 -4 10 -10 10 -5 0
-10 -4 -10 -10z"/>
<path d="M3640 5590 c0 -11 5 -20 10 -20 6 0 10 9 10 20 0 11 -4 20 -10 20 -5
0 -10 -9 -10 -20z"/>
<path d="M3680 5590 c0 -11 2 -20 4 -20 2 0 6 9 9 20 3 11 1 20 -4 20 -5 0 -9
-9 -9 -20z"/>
<path d="M3271 5588 c0 -9 -9 -19 -18 -21 -16 -4 -16 -5 -1 -6 12 -1 18 -12
20 -38 3 -32 7 -38 28 -40 22 -1 22 -1 3 4 -18 3 -23 11 -23 38 0 27 4 34 23
38 22 4 22 4 0 6 -12 0 -24 9 -26 19 -4 15 -5 15 -6 0z"/>
<path d="M638 5583 c17 -2 32 -6 32 -9 0 -3 -9 -23 -21 -45 -11 -23 -19 -43
-17 -45 2 -2 16 21 31 51 l27 55 -43 -2 c-36 -1 -38 -2 -9 -5z"/>
<path d="M2872 5538 l-2 -58 33 1 c29 2 30 2 5 6 -25 4 -27 9 -31 56 l-3 52
-2 -57z"/>
<path d="M2215 5563 c33 -9 37 -27 7 -33 -19 -4 -27 -11 -27 -25 0 -16 7 -20
33 -20 32 -1 33 0 30 40 -3 37 -5 40 -33 42 -19 1 -22 0 -10 -4z m35 -52 c0
-12 -29 -23 -41 -15 -5 3 -7 10 -4 15 8 12 45 12 45 0z"/>
<path d="M2392 5558 c-31 -31 -3 -83 40 -75 21 4 21 4 -3 6 -15 0 -29 8 -33
16 -4 12 3 15 29 15 38 0 40 2 25 31 -12 21 -40 25 -58 7z m46 -15 c2 -8 -6
-13 -22 -13 -19 0 -24 4 -19 15 6 18 34 16 41 -2z"/>
<path d="M2696 5561 c-4 -5 -2 -12 3 -15 5 -4 12 -2 15 3 4 5 2 12 -3 15 -5 4
-12 2 -15 -3z"/>
<path d="M2973 5563 c-16 -6 -17 -69 -2 -78 17 -11 56 4 61 23 12 43 -19 72
-59 55z m42 -38 c0 -23 -4 -30 -20 -30 -21 0 -31 25 -21 51 11 28 41 12 41
-21z"/>
<path d="M3072 5558 c-7 -7 -12 -24 -12 -39 0 -27 16 -40 48 -38 10 1 6 4 -8
8 -19 5 -25 13 -25 36 0 23 6 31 25 36 21 6 22 7 5 8 -12 1 -26 -4 -33 -11z"/>
<path d="M3166 5562 c-3 -5 4 -8 16 -8 12 1 23 -5 25 -11 3 -8 -4 -13 -15 -13
-23 0 -46 -25 -37 -40 3 -5 20 -9 36 -8 28 2 30 4 27 43 -2 32 -7 41 -25 43
-11 2 -24 -1 -27 -6z m42 -54 c-7 -19 -38 -22 -38 -4 0 10 9 16 21 16 12 0 19
-5 17 -12z"/>
<path d="M3363 5563 c12 -3 17 -14 17 -38 0 -24 -5 -35 -17 -38 -10 -3 -2 -5
17 -5 19 0 29 2 23 5 -8 2 -13 22 -13 44 0 34 -3 39 -22 38 -17 -1 -19 -2 -5
-6z"/>
<path d="M3453 5563 c-16 -6 -17 -69 -2 -78 17 -11 56 4 61 23 12 43 -19 72
-59 55z m42 -38 c0 -23 -4 -30 -20 -30 -21 0 -31 25 -21 51 11 28 41 12 41
-21z"/>
<path d="M3541 5525 l1 -50 8 40 c5 22 4 44 -1 50 -5 5 -9 -11 -8 -40z"/>
<path d="M3582 5558 c9 -7 19 -29 21 -48 3 -26 4 -24 3 10 -1 36 -5 45 -21 48
-18 4 -19 3 -3 -10z"/>
<path d="M2696 5501 c-4 -5 -2 -12 3 -15 5 -4 12 -2 15 3 4 5 2 12 -3 15 -5 4
-12 2 -15 -3z"/>
<path d="M3754 5494 c4 -9 1 -23 -5 -30 -14 -17 2 -19 19 -2 17 17 15 48 -4
48 -11 0 -14 -5 -10 -16z"/>
<path d="M2012 5360 c0 -14 2 -19 5 -12 2 6 2 18 0 25 -3 6 -5 1 -5 -13z"/>
<path d="M2040 5360 c0 -11 5 -20 10 -20 6 0 10 9 10 20 0 11 -4 20 -10 20 -5
0 -10 -9 -10 -20z"/>
<path d="M2410 5370 c0 -5 5 -10 10 -10 6 0 10 5 10 10 0 6 -4 10 -10 10 -5 0
-10 -4 -10 -10z"/>
<path d="M2782 5360 c0 -14 2 -19 5 -12 2 6 2 18 0 25 -3 6 -5 1 -5 -13z"/>
<path d="M2810 5360 c0 -11 5 -20 10 -20 6 0 10 9 10 20 0 11 -4 20 -10 20 -5
0 -10 -9 -10 -20z"/>
<path d="M3070 5295 c0 -82 1 -85 23 -84 16 1 18 2 5 6 -15 4 -18 16 -18 78 0
62 3 74 18 78 13 4 11 5 -5 6 -22 1 -23 -2 -23 -84z"/>
<path d="M3160 5360 c0 -11 5 -20 10 -20 6 0 10 9 10 20 0 11 -4 20 -10 20 -5
0 -10 -9 -10 -20z"/>
<path d="M3200 5360 c0 -11 2 -20 4 -20 2 0 6 9 9 20 3 11 1 20 -4 20 -5 0 -9
-9 -9 -20z"/>
<path d="M3930 5360 c0 -11 5 -20 10 -20 6 0 10 9 10 20 0 11 -4 20 -10 20 -5
0 -10 -9 -10 -20z"/>
<path d="M3970 5360 c0 -11 2 -20 4 -20 2 0 6 9 9 20 3 11 1 20 -4 20 -5 0 -9
-9 -9 -20z"/>
<path d="M4220 5358 c0 -19 2 -20 10 -8 13 19 13 30 0 30 -5 0 -10 -10 -10
-22z"/>
<path d="M4257 5360 c3 -11 7 -20 9 -20 2 0 4 9 4 20 0 11 -4 20 -9 20 -5 0
-7 -9 -4 -20z"/>
<path d="M4802 5360 c0 -14 2 -19 5 -12 2 6 2 18 0 25 -3 6 -5 1 -5 -13z"/>
<path d="M4830 5366 c0 -8 5 -18 10 -21 6 -3 10 3 10 14 0 12 -4 21 -10 21 -5
0 -10 -6 -10 -14z"/>
<path d="M5092 5360 c0 -14 2 -19 5 -12 2 6 2 18 0 25 -3 6 -5 1 -5 -13z"/>
<path d="M5120 5366 c0 -8 5 -18 10 -21 6 -3 10 3 10 14 0 12 -4 21 -10 21 -5
0 -10 -6 -10 -14z"/>
<path d="M5572 5360 c0 -14 2 -19 5 -12 2 6 2 18 0 25 -3 6 -5 1 -5 -13z"/>
<path d="M5600 5366 c0 -8 5 -18 10 -21 6 -3 10 3 10 14 0 12 -4 21 -10 21 -5
0 -10 -6 -10 -14z"/>
<path d="M5683 5373 c14 -4 17 -16 17 -78 0 -62 -3 -74 -17 -78 -14 -4 -12 -5
5 -6 21 -1 22 2 22 84 0 82 -1 85 -22 84 -17 -1 -19 -2 -5 -6z"/>
<path d="M2301 5358 c0 -10 -7 -18 -13 -18 -10 0 -10 -2 -1 -8 6 -4 13 -23 15
-42 2 -29 7 -35 28 -37 14 -2 19 0 10 4 -37 15 -42 69 -7 76 22 4 22 4 0 6
-12 0 -24 9 -26 19 -4 16 -5 16 -6 0z"/>
<path d="M3651 5358 c0 -10 -7 -18 -13 -18 -10 0 -10 -2 -1 -8 6 -4 13 -23 15
-42 2 -29 7 -35 28 -37 25 -3 25 -3 3 7 -17 7 -23 18 -23 39 0 23 5 31 23 34
22 4 22 4 0 6 -12 0 -24 9 -26 19 -4 16 -5 16 -6 0z"/>
<path d="M4421 5358 c0 -10 -7 -18 -13 -18 -10 0 -10 -2 -1 -8 6 -4 13 -23 15
-42 2 -29 7 -35 28 -37 25 -3 25 -3 3 7 -17 7 -23 18 -23 39 0 23 5 31 23 34
22 4 22 4 0 6 -12 0 -24 9 -26 19 -4 16 -5 16 -6 0z"/>
<path d="M4611 5358 c0 -9 -7 -19 -13 -21 -10 -4 -10 -6 0 -6 6 -1 12 -12 12
-25 0 -39 11 -56 34 -55 14 0 16 2 6 6 -37 14 -42 69 -7 76 22 4 22 4 0 6 -12
0 -24 9 -26 19 -4 15 -5 15 -6 0z"/>
<path d="M5381 5358 c0 -9 -7 -19 -13 -21 -10 -4 -10 -6 0 -6 6 -1 12 -12 12
-25 0 -39 11 -56 34 -55 14 0 16 2 6 6 -37 14 -42 69 -7 76 22 4 22 4 0 6 -12
0 -24 9 -26 19 -4 15 -5 15 -6 0z"/>
<path d="M627 5353 c-11 -10 -8 -43 4 -43 6 0 3 -7 -6 -16 -12 -12 -13 -19 -4
-30 15 -19 43 -18 60 2 11 14 10 18 -6 30 -10 8 -13 14 -7 14 7 0 12 5 12 11
0 8 -4 8 -15 -1 -17 -14 -35 -5 -35 17 0 11 7 14 25 11 13 -3 22 -1 19 3 -6
11 -38 12 -47 2z m42 -66 c13 -16 5 -27 -21 -27 -18 0 -25 20 -11 33 10 10 19
8 32 -6z"/>
<path d="M2102 5328 c-29 -29 -3 -84 35 -76 25 5 40 52 23 72 -15 19 -41 21
-58 4z m43 -33 c0 -23 -4 -30 -20 -30 -21 0 -31 25 -21 51 11 28 41 12 41 -21z"/>
<path d="M2191 5270 c1 -36 4 -55 6 -42 3 13 12 22 22 22 26 0 43 24 39 57 -3
24 -7 28 -35 28 l-33 1 1 -66z m54 24 c0 -22 -5 -30 -22 -32 -18 -3 -23 1 -23
20 0 26 18 50 35 45 5 -2 10 -17 10 -33z"/>
<path d="M2398 5333 c19 -8 15 -71 -5 -76 -10 -3 0 -5 22 -5 22 0 34 2 28 5
-8 2 -13 22 -13 44 0 34 -3 39 -22 38 -13 0 -17 -3 -10 -6z"/>
<path d="M2479 5319 c-23 -44 25 -91 59 -57 17 17 15 65 -4 72 -28 11 -43 6
-55 -15z m56 -24 c0 -23 -4 -30 -20 -30 -21 0 -31 25 -21 51 11 28 41 12 41
-21z"/>
<path d="M2581 5291 l2 -46 6 40 c4 26 12 41 23 43 13 3 18 -6 21 -40 l4 -43
-1 45 c-1 42 -3 45 -28 46 -27 1 -28 -1 -27 -45z"/>
<path d="M2681 5326 c-10 -12 -7 -18 13 -31 33 -22 33 -39 0 -32 -17 3 -22 1
-15 -6 14 -14 61 0 61 18 0 9 -11 20 -25 25 -31 12 -32 27 -2 33 21 4 21 4 1
6 -12 0 -27 -5 -33 -13z"/>
<path d="M2890 5325 c0 -8 5 -15 10 -15 6 0 10 7 10 15 0 8 -4 15 -10 15 -5 0
-10 -7 -10 -15z"/>
<path d="M3262 5328 c-29 -29 -3 -85 35 -75 15 4 14 5 -4 6 -23 1 -39 33 -28
52 4 6 17 14 29 19 20 9 20 9 1 9 -12 1 -26 -4 -33 -11z"/>
<path d="M3350 5326 c-28 -35 11 -93 48 -70 35 22 22 84 -18 84 -10 0 -23 -7
-30 -14z m55 -15 c8 -26 -4 -51 -25 -51 -10 0 -21 7 -24 16 -10 25 3 54 24 54
10 0 21 -8 25 -19z"/>
<path d="M3444 5300 c1 -44 2 -45 34 -45 32 -1 32 0 30 45 -1 35 -2 38 -5 13
-5 -35 -29 -62 -43 -47 -5 5 -11 25 -13 44 -3 27 -4 25 -3 -10z"/>
<path d="M3541 5295 l1 -50 8 40 c5 22 4 44 -1 50 -5 5 -9 -11 -8 -40z"/>
<path d="M3582 5328 c9 -7 19 -29 21 -48 3 -26 4 -24 3 10 -1 36 -5 45 -21 48
-18 4 -19 3 -3 -10z"/>
<path d="M3730 5294 c0 -24 5 -44 10 -44 6 0 10 16 10 35 0 39 25 59 42 34 8
-12 9 -11 5 1 -2 9 -17 16 -35 17 -31 1 -32 0 -32 -43z"/>
<path d="M3823 5329 c3 -8 11 -31 18 -53 12 -35 11 -40 -7 -53 -12 -10 -13
-14 -4 -11 13 3 69 100 70 121 0 20 -19 -6 -25 -33 -4 -17 -10 -30 -15 -30 -5
0 -11 13 -15 30 -4 16 -11 33 -17 36 -6 4 -8 1 -5 -7z"/>
<path d="M4321 5326 c-10 -12 -7 -18 13 -31 33 -22 33 -39 1 -33 -13 3 -22 1
-19 -3 8 -14 40 -10 53 5 10 12 7 18 -13 31 -30 20 -33 32 -8 38 14 4 14 5 1
6 -9 0 -22 -5 -28 -13z"/>
<path d="M4538 5330 c30 -13 28 -28 -5 -32 -34 -4 -40 -41 -8 -46 18 -3 19 -2
2 8 -21 14 -13 30 15 30 14 0 18 -5 15 -15 -4 -8 -2 -17 4 -21 7 -4 9 10 7 38
-3 38 -6 43 -28 45 -25 3 -25 3 -2 -7z"/>
<path d="M4698 5314 c-16 -34 0 -59 38 -60 27 -2 28 -2 2 3 -14 2 -29 11 -32
19 -4 10 3 14 29 14 38 0 40 2 25 31 -15 27 -48 24 -62 -7z m52 1 c0 -9 -9
-15 -25 -15 -18 0 -23 4 -19 15 4 8 15 15 25 15 10 0 19 -7 19 -15z"/>
<path d="M5194 5332 c-32 -22 -18 -82 18 -81 l23 0 -22 9 c-16 6 -23 18 -23
35 0 17 7 29 23 35 12 5 15 9 7 9 -8 0 -20 -3 -26 -7z"/>
<path d="M5288 5333 c19 -8 15 -71 -5 -76 -10 -3 0 -5 22 -5 22 0 32 2 23 5
-13 3 -18 15 -18 44 0 31 -4 39 -17 38 -11 0 -13 -3 -5 -6z"/>
<path d="M5462 5329 c34 -90 34 -90 13 -105 -10 -8 -14 -14 -8 -14 6 0 15 6
21 13 17 20 52 117 43 117 -5 0 -12 -13 -16 -30 -9 -41 -22 -46 -30 -10 -4 16
-11 33 -17 37 -7 4 -9 1 -6 -8z"/>
<path d="M2890 5265 c0 -8 5 -15 10 -15 6 0 10 7 10 15 0 8 -4 15 -10 15 -5 0
-10 -7 -10 -15z"/>
<path d="M4044 5264 c4 -9 1 -23 -5 -30 -7 -8 -7 -14 -1 -14 16 0 35 29 28 45
-3 8 -10 15 -17 15 -6 0 -8 -7 -5 -16z"/>
<path d="M4913 5260 c3 -12 -1 -24 -11 -30 -16 -9 -16 -9 0 -10 19 0 42 35 33
50 -11 18 -27 10 -22 -10z"/>
<path d="M11862 5173 l1 -78 6 60 6 60 39 -57 c21 -32 43 -58 47 -58 5 0 9 34
9 75 0 87 -18 102 -22 18 l-3 -57 -38 57 c-20 31 -39 57 -42 57 -3 0 -4 -35
-3 -77z"/>
<path d="M11999 5194 c-13 -16 -12 -16 9 -5 27 14 56 7 50 -12 -3 -6 -18 -14
-34 -17 -23 -4 -29 -10 -29 -30 0 -22 4 -25 40 -26 l40 -1 -5 51 c-4 46 -8 51
-31 54 -15 2 -32 -4 -40 -14z m48 -71 c-17 -17 -51 -10 -45 9 5 15 52 28 57
15 2 -5 -4 -16 -12 -24z"/>
<path d="M12102 5150 c1 -49 2 -50 5 -13 4 42 24 70 43 58 5 -3 11 -27 12 -53
l1 -47 4 42 c4 43 27 73 43 57 5 -5 10 -29 13 -54 l4 -45 1 53 c2 56 -14 76
-42 53 -9 -8 -16 -8 -20 -2 -4 6 -20 9 -36 8 -30 -2 -30 -3 -28 -57z"/>
<path d="M12270 5195 c-27 -33 -8 -95 30 -95 20 0 46 27 36 37 -3 3 -6 2 -6
-4 0 -17 -31 -25 -46 -12 -23 19 -16 28 26 31 39 3 39 4 27 28 -15 30 -48 37
-67 15z m44 -1 c28 -11 18 -34 -14 -34 -32 0 -37 9 -18 28 14 14 12 14 32 6z"/>
<path d="M1823 5129 c10 -6 18 -23 18 -42 2 -31 2 -31 6 -4 5 29 -11 57 -31
57 -6 0 -3 -5 7 -11z"/>
<path d="M620 5105 c-17 -20 -2 -49 26 -52 14 -2 13 0 -4 7 -15 6 -22 17 -20
27 4 22 37 30 50 11 8 -10 9 -10 5 2 -5 21 -41 24 -57 5z"/>
<path d="M675 5070 c-3 -5 -1 -10 4 -10 6 0 11 5 11 10 0 6 -2 10 -4 10 -3 0
-8 -4 -11 -10z"/>
<path d="M666 5033 c-6 -14 -5 -15 5 -6 7 7 10 15 7 18 -3 3 -9 -2 -12 -12z"/>
<path d="M1841 5023 c-1 -19 -8 -36 -18 -42 -17 -10 -17 -10 -1 -11 19 0 33
37 25 67 -3 10 -5 4 -6 -14z"/>
<path d="M1924 5024 c4 -9 1 -23 -5 -30 -14 -17 2 -19 19 -2 17 17 15 48 -4
48 -11 0 -14 -5 -10 -16z"/>
<path d="M628 5013 c7 -3 16 -2 19 1 4 3 -2 6 -13 5 -11 0 -14 -3 -6 -6z"/>
<path d="M1834 4876 c-3 -14 -4 -33 -1 -43 3 -10 5 -4 6 14 1 19 8 36 19 42
16 10 16 10 0 11 -10 0 -20 -10 -24 -24z"/>
<path d="M552 4833 c-2 -40 -6 -53 -19 -56 -10 -3 0 -5 22 -5 22 0 32 2 23 5
-13 3 -18 18 -21 56 l-3 52 -2 -52z"/>
<path d="M626 4871 c-3 -4 6 -6 21 -3 23 4 25 2 20 -17 -3 -11 -1 -19 4 -15
12 7 11 -27 0 -45 -6 -8 -18 -12 -31 -8 -16 4 -20 3 -13 -4 33 -33 77 28 55
76 -11 24 -45 34 -56 16z"/>
<path d="M611 4828 c-1 -32 10 -36 30 -10 13 15 12 16 -3 4 -14 -11 -17 -10
-21 10 -4 20 -4 20 -6 -4z"/>
<path d="M1834 4775 c1 -31 5 -41 21 -43 18 -4 19 -3 3 10 -9 7 -19 27 -21 43
-3 21 -4 18 -3 -10z"/>
<path d="M2850 4585 c0 -70 4 -115 10 -115 6 0 10 45 10 115 0 70 -4 115 -10
115 -6 0 -10 -45 -10 -115z"/>
<path d="M2012 4640 c0 -14 2 -19 5 -12 2 6 2 18 0 25 -3 6 -5 1 -5 -13z"/>
<path d="M2040 4640 c0 -11 5 -20 10 -20 6 0 10 9 10 20 0 11 -4 20 -10 20 -5
0 -10 -9 -10 -20z"/>
<path d="M2120 4650 c0 -5 5 -10 10 -10 6 0 10 5 10 10 0 6 -4 10 -10 10 -5 0
-10 -4 -10 -10z"/>
<path d="M2240 4641 c0 -12 -9 -21 -26 -25 -22 -6 -25 -11 -22 -44 3 -34 5
-37 36 -37 l32 -1 0 63 c0 35 -4 63 -10 63 -5 0 -10 -9 -10 -19z m-2 -63 c-3
-36 -30 -46 -36 -15 -5 26 5 47 23 47 12 0 15 -8 13 -32z"/>
<path d="M2290 4640 c0 -11 5 -20 10 -20 6 0 10 9 10 20 0 11 -4 20 -10 20 -5
0 -10 -9 -10 -20z"/>
<path d="M2330 4639 c0 -11 5 -17 10 -14 6 3 10 13 10 21 0 8 -4 14 -10 14 -5
0 -10 -9 -10 -21z"/>
<path d="M2492 4640 c0 -14 2 -19 5 -12 2 6 2 18 0 25 -3 6 -5 1 -5 -13z"/>
<path d="M2520 4646 c0 -8 5 -18 10 -21 6 -3 10 3 10 14 0 12 -4 21 -10 21 -5
0 -10 -6 -10 -14z"/>
<path d="M2680 4638 c0 -19 2 -20 10 -8 13 19 13 30 0 30 -5 0 -10 -10 -10
-22z"/>
<path d="M2717 4640 c3 -11 7 -20 9 -20 2 0 4 9 4 20 0 11 -4 20 -9 20 -5 0
-7 -9 -4 -20z"/>
<path d="M529 4623 c-13 -16 -12 -17 4 -4 16 12 17 10 17 -32 0 -35 -4 -47
-17 -50 -10 -3 0 -5 22 -5 22 0 32 2 23 5 -14 3 -18 15 -18 54 0 52 -9 60 -31
32z"/>
<path d="M624 4624 c-18 -14 -18 -15 4 -4 21 10 22 9 22 -34 0 -34 -4 -46 -17
-49 -10 -3 0 -5 22 -5 22 0 32 2 23 5 -14 3 -18 15 -18 54 0 53 -5 58 -36 33z"/>
<path d="M2586 4632 c-3 -6 2 -8 14 -5 33 9 36 -24 6 -56 -34 -36 -33 -41 12
-40 31 2 33 3 8 6 l-28 5 22 23 c27 29 24 69 -7 73 -11 2 -24 -1 -27 -6z"/>
<path d="M2108 4613 c19 -8 15 -71 -5 -76 -10 -3 0 -5 22 -5 22 0 34 2 28 5
-8 2 -13 22 -13 44 0 34 -3 39 -22 38 -13 0 -17 -3 -10 -6z"/>
<path d="M2410 4605 c0 -8 5 -15 10 -15 6 0 10 7 10 15 0 8 -4 15 -10 15 -5 0
-10 -7 -10 -15z"/>
<path d="M2410 4545 c0 -8 5 -15 10 -15 6 0 10 7 10 15 0 8 -4 15 -10 15 -5 0
-10 -7 -10 -15z"/>
<path d="M2794 4544 c4 -9 1 -23 -5 -30 -7 -8 -7 -14 -1 -14 16 0 35 29 28 45
-3 8 -10 15 -17 15 -6 0 -8 -7 -5 -16z"/>
<path d="M2012 4410 c0 -14 2 -19 5 -12 2 6 2 18 0 25 -3 6 -5 1 -5 -13z"/>
<path d="M2040 4410 c0 -11 5 -20 10 -20 6 0 10 9 10 20 0 11 -4 20 -10 20 -5
0 -10 -9 -10 -20z"/>
<path d="M2492 4410 c0 -14 2 -19 5 -12 2 6 2 18 0 25 -3 6 -5 1 -5 -13z"/>
<path d="M2520 4410 c0 -11 5 -20 10 -20 6 0 10 9 10 20 0 11 -4 20 -10 20 -5
0 -10 -9 -10 -20z"/>
<path d="M2782 4410 c0 -14 2 -19 5 -12 2 6 2 18 0 25 -3 6 -5 1 -5 -13z"/>
<path d="M2810 4416 c0 -8 5 -18 10 -21 6 -3 10 3 10 14 0 12 -4 21 -10 21 -5
0 -10 -6 -10 -14z"/>
<path d="M2890 4420 c0 -5 5 -10 10 -10 6 0 10 5 10 10 0 6 -4 10 -10 10 -5 0
-10 -4 -10 -10z"/>
<path d="M3350 4423 c0 -5 5 -15 10 -23 8 -12 10 -11 10 8 0 12 -4 22 -10 22
-5 0 -10 -3 -10 -7z"/>
<path d="M3390 4409 c0 -11 5 -17 10 -14 6 3 10 13 10 21 0 8 -4 14 -10 14 -5
0 -10 -9 -10 -21z"/>
<path d="M2111 4408 c0 -9 -9 -19 -18 -21 -16 -4 -16 -5 -1 -6 12 -1 18 -12
20 -38 3 -32 7 -38 28 -40 25 -3 25 -3 3 7 -17 7 -23 18 -23 39 0 23 5 31 23
34 22 4 22 4 0 6 -12 0 -24 9 -26 19 -4 15 -5 15 -6 0z"/>
<path d="M3271 4408 c0 -9 -9 -19 -18 -21 -16 -4 -16 -5 -1 -6 12 -1 18 -12
20 -38 3 -32 7 -38 28 -40 22 -1 22 -1 3 4 -18 3 -23 11 -23 38 0 27 4 34 23
38 22 4 22 4 0 6 -12 0 -24 9 -26 19 -4 15 -5 15 -6 0z"/>
<path d="M552 4363 c-2 -40 -6 -53 -19 -56 -10 -3 0 -5 22 -5 22 0 32 2 23 5
-13 3 -18 18 -21 56 l-3 52 -2 -52z"/>
<path d="M648 4400 c29 -12 28 -31 -3 -60 -33 -31 -32 -40 8 -39 23 1 26 3 9
6 l-22 4 21 31 c25 34 17 61 -17 65 -15 2 -14 1 4 -7z"/>
<path d="M2195 4354 c20 -48 19 -71 -2 -83 -17 -10 -17 -10 0 -11 12 0 26 17
43 55 13 31 24 61 23 68 0 7 -8 -6 -18 -28 l-18 -40 -12 38 c-7 20 -17 37 -22
37 -5 0 -2 -16 6 -36z"/>
<path d="M2291 4321 c1 -36 4 -56 6 -43 3 14 12 22 24 22 26 0 47 45 32 68 -5
9 -22 17 -37 18 -26 1 -26 0 -25 -65z m47 27 c-4 -44 -38 -53 -38 -10 0 32 7
42 27 42 10 0 13 -10 11 -32z"/>
<path d="M2392 4378 c-31 -31 -3 -83 40 -75 21 4 21 4 -3 6 -15 0 -29 8 -33
16 -4 12 3 15 29 15 38 0 40 2 25 31 -12 21 -40 25 -58 7z m46 -15 c2 -8 -6
-13 -22 -13 -19 0 -24 4 -19 15 6 18 34 16 41 -2z"/>
<path d="M2600 4375 c0 -8 5 -15 10 -15 6 0 10 7 10 15 0 8 -4 15 -10 15 -5 0
-10 -7 -10 -15z"/>
<path d="M2878 4383 c6 -2 12 -20 12 -38 0 -18 -6 -36 -12 -38 -7 -3 3 -5 22
-5 19 0 29 2 23 5 -8 2 -13 22 -13 44 0 34 -3 39 -22 38 -13 0 -17 -3 -10 -6z"/>
<path d="M2962 4340 c1 -35 2 -38 5 -13 5 35 29 62 43 47 5 -5 11 -25 13 -44
3 -27 4 -25 3 10 -1 44 -2 45 -33 45 -33 1 -33 0 -31 -45z"/>
<path d="M3061 4321 c1 -36 4 -56 6 -43 3 14 12 22 24 22 26 0 47 45 32 68 -5
9 -22 17 -37 18 -26 1 -26 0 -25 -65z m54 40 c8 -26 -4 -51 -26 -51 -14 0 -19
7 -19 28 0 16 3 32 7 35 12 13 32 7 38 -12z"/>
<path d="M3164 4348 c1 -40 3 -43 29 -44 26 -1 27 1 26 45 l-2 46 -6 -40 c-9
-57 -38 -61 -44 -6 l-4 41 1 -42z"/>
<path d="M2600 4315 c0 -8 5 -15 10 -15 6 0 10 7 10 15 0 8 -4 15 -10 15 -5 0
-10 -7 -10 -15z"/>
<path d="M3464 4314 c4 -9 1 -23 -5 -30 -14 -17 2 -19 19 -2 17 17 15 48 -4
48 -11 0 -14 -5 -10 -16z"/>
<path d="M11860 4230 c-19 -19 -20 -33 -20 -230 0 -197 1 -211 20 -230 19 -19
33 -20 475 -20 442 0 456 1 475 20 19 19 20 33 20 230 0 197 -1 211 -20 230
-19 19 -33 20 -475 20 -442 0 -456 -1 -475 -20z m300 -169 c14 -27 13 -31 -6
-31 -9 0 -22 7 -29 17 -7 9 -19 14 -29 10 -26 -10 -19 -22 27 -37 71 -25 61
-90 -14 -90 -28 0 -42 6 -54 23 -14 20 -14 22 0 25 9 2 22 -4 29 -13 14 -20
51 -17 51 4 0 8 -13 19 -30 24 -54 17 -71 47 -43 75 20 20 86 15 98 -7z m150
-1 c0 -15 7 -20 29 -20 31 0 41 -14 41 -59 0 -37 -17 -51 -62 -51 l-38 0 0 75
c0 60 3 75 15 75 8 0 15 -9 15 -20z m270 10 c0 -5 -7 -10 -15 -10 -8 0 -15 5
-15 10 0 6 7 10 15 10 8 0 15 -4 15 -10z m40 -9 c0 -11 6 -22 13 -25 10 -5 10
-7 0 -12 -15 -7 -18 -74 -3 -74 6 0 10 -4 10 -10 0 -5 -11 -10 -25 -10 -23 0
-25 4 -27 48 l-2 47 -3 -47 c-3 -34 -8 -48 -19 -48 -10 0 -14 14 -14 55 0 48
2 55 20 55 13 0 20 7 20 20 0 11 7 20 15 20 8 0 15 -9 15 -19z m-410 -67 c0
-59 24 -55 28 4 2 29 8 42 18 42 10 0 14 -14 14 -56 l0 -55 -42 3 -43 3 -3 53
c-2 42 0 52 12 52 12 0 16 -11 16 -46z m328 -11 c2 -43 0 -53 -12 -53 -12 0
-16 11 -16 46 0 59 -24 55 -28 -4 -2 -29 -8 -42 -18 -42 -10 0 -14 13 -14 46
0 59 -24 55 -28 -4 -2 -29 -8 -42 -18 -42 -10 0 -14 14 -14 55 l0 56 73 -3 72
-3 3 -52z"/>
<path d="M12314 4006 c-9 -23 0 -51 16 -51 10 0 15 10 15 29 0 32 -21 47 -31
22z"/>
<path d="M2012 4170 c0 -14 2 -19 5 -12 2 6 2 18 0 25 -3 6 -5 1 -5 -13z"/>
<path d="M2040 4170 c0 -11 5 -20 10 -20 6 0 10 9 10 20 0 11 -4 20 -10 20 -5
0 -10 -9 -10 -20z"/>
<path d="M2108 4183 c7 -3 12 -25 12 -58 0 -43 -4 -54 -17 -58 -10 -3 0 -5 22
-5 22 0 34 2 28 5 -9 3 -13 26 -13 64 0 55 -2 59 -22 58 -13 0 -17 -3 -10 -6z"/>
<path d="M2291 4128 c-1 -65 0 -68 22 -68 13 0 28 5 35 12 28 28 2 88 -32 75
-10 -4 -16 2 -19 21 -2 15 -5 -3 -6 -40z m52 -7 c6 -23 -10 -51 -28 -51 -15 0
-22 50 -8 63 12 13 31 7 36 -12z"/>
<path d="M2493 4183 c13 -4 17 -15 17 -58 0 -43 -4 -54 -17 -58 -10 -3 0 -5
22 -5 22 0 32 2 23 5 -15 4 -18 16 -18 64 0 55 -2 59 -22 58 -17 -1 -19 -2 -5
-6z"/>
<path d="M2580 4170 c0 -11 5 -20 10 -20 6 0 10 9 10 20 0 11 -4 20 -10 20 -5
0 -10 -9 -10 -20z"/>
<path d="M2620 4169 c0 -11 5 -17 10 -14 6 3 10 13 10 21 0 8 -4 14 -10 14 -5
0 -10 -9 -10 -21z"/>
<path d="M2870 4170 c0 -11 5 -20 10 -20 6 0 10 9 10 20 0 11 -4 20 -10 20 -5
0 -10 -9 -10 -20z"/>
<path d="M2910 4170 c0 -11 2 -20 4 -20 2 0 6 9 9 20 3 11 1 20 -4 20 -5 0 -9
-9 -9 -20z"/>
<path d="M3350 4183 c0 -5 5 -15 10 -23 8 -12 10 -11 10 8 0 12 -4 22 -10 22
-5 0 -10 -3 -10 -7z"/>
<path d="M3390 4169 c0 -11 5 -17 10 -14 6 3 10 13 10 21 0 8 -4 14 -10 14 -5
0 -10 -9 -10 -21z"/>
<path d="M552 4123 c-2 -40 -6 -53 -19 -56 -10 -3 0 -5 22 -5 22 0 32 2 23 5
-13 3 -18 18 -21 56 l-3 52 -2 -52z"/>
<path d="M639 4161 c33 -9 38 -29 9 -40 -15 -6 -17 -10 -7 -10 9 -1 22 6 29
14 16 20 -3 45 -34 44 -19 -1 -19 -2 3 -8z"/>
<path d="M2962 4113 l1 -58 7 50 c4 28 8 44 8 36 1 -8 4 -12 7 -9 8 7 -5 38
-16 38 -5 0 -8 -26 -7 -57z"/>
<path d="M3022 4125 c-2 -36 -5 -46 -12 -35 -5 8 -10 11 -10 5 0 -16 18 -40
25 -33 3 3 4 30 2 59 l-3 54 -2 -50z"/>
<path d="M2215 4143 c33 -9 37 -27 7 -33 -19 -4 -27 -11 -27 -25 0 -16 7 -20
33 -20 32 -1 33 0 30 40 -3 37 -5 40 -33 42 -19 1 -22 0 -10 -4z m35 -52 c0
-12 -29 -23 -41 -15 -5 3 -7 10 -4 15 8 12 45 12 45 0z"/>
<path d="M2392 4138 c-31 -31 -3 -83 40 -75 21 4 21 4 -3 6 -15 0 -29 8 -33
16 -4 12 3 15 29 15 38 0 40 2 25 31 -12 21 -40 25 -58 7z m46 -15 c2 -8 -6
-13 -22 -13 -19 0 -24 4 -19 15 6 18 34 16 41 -2z"/>
<path d="M2696 4141 c-4 -5 -2 -12 3 -15 5 -4 12 -2 15 3 4 5 2 12 -3 15 -5 4
-12 2 -15 -3z"/>
<path d="M3066 4142 c-3 -5 6 -7 19 -4 18 3 25 0 25 -12 0 -9 -8 -16 -19 -16
-23 0 -42 -22 -32 -38 4 -7 20 -11 35 -10 25 2 27 5 24 43 -2 32 -7 41 -25 43
-11 2 -24 -1 -27 -6z m42 -54 c-7 -19 -38 -22 -38 -4 0 10 9 16 21 16 12 0 19
-5 17 -12z"/>
<path d="M3152 4100 c1 -40 2 -41 5 -10 7 53 23 62 23 12 0 -23 5 -42 10 -42
6 0 10 18 10 40 0 53 18 51 23 -2 l4 -43 1 47 2 47 -40 -2 -40 -2 2 -45z"/>
<path d="M3262 4138 c-17 -17 -15 -65 4 -72 9 -3 25 -5 37 -5 17 1 15 3 -7 8
-41 9 -46 31 -7 31 19 0 31 5 31 13 0 16 -20 37 -35 37 -6 0 -16 -5 -23 -12z
m46 -15 c2 -8 -6 -13 -22 -13 -25 0 -33 10 -19 24 10 10 36 3 41 -11z"/>
<path d="M668 4093 c-3 -12 -16 -23 -29 -26 -19 -3 -20 -5 -4 -5 29 -2 48 13
43 34 -3 17 -4 17 -10 -3z"/>
<path d="M2696 4081 c-4 -5 -2 -12 3 -15 5 -4 12 -2 15 3 4 5 2 12 -3 15 -5 4
-12 2 -15 -3z"/>
<path d="M3464 4074 c4 -9 1 -23 -5 -30 -14 -17 2 -19 19 -2 17 17 15 48 -4
48 -11 0 -14 -5 -10 -16z"/>
<path d="M2012 3930 c0 -14 2 -19 5 -12 2 6 2 18 0 25 -3 6 -5 1 -5 -13z"/>
<path d="M2040 3930 c0 -11 5 -20 10 -20 6 0 10 9 10 20 0 11 -4 20 -10 20 -5
0 -10 -9 -10 -20z"/>
<path d="M2500 3940 c0 -5 5 -10 10 -10 6 0 10 5 10 10 0 6 -4 10 -10 10 -5 0
-10 -4 -10 -10z"/>
<path d="M2820 3930 c0 -13 -7 -20 -20 -20 -27 0 -45 -36 -32 -66 8 -17 19
-22 41 -22 l31 1 0 64 c0 35 -4 63 -10 63 -5 0 -10 -9 -10 -20z m-2 -62 c-4
-44 -38 -53 -38 -10 0 32 7 42 27 42 10 0 13 -10 11 -32z"/>
<path d="M2870 3930 c0 -11 5 -20 10 -20 6 0 10 9 10 20 0 11 -4 20 -10 20 -5
0 -10 -9 -10 -20z"/>
<path d="M2910 3930 c0 -11 2 -20 4 -20 2 0 6 9 9 20 3 11 1 20 -4 20 -5 0 -9
-9 -9 -20z"/>
<path d="M3060 3943 c0 -5 5 -15 10 -23 8 -12 10 -11 10 8 0 12 -4 22 -10 22
-5 0 -10 -3 -10 -7z"/>
<path d="M3100 3929 c0 -11 5 -17 10 -14 6 3 10 13 10 21 0 8 -4 14 -10 14 -5
0 -10 -9 -10 -21z"/>
<path d="M3552 3930 c0 -14 2 -19 5 -12 2 6 2 18 0 25 -3 6 -5 1 -5 -13z"/>
<path d="M3580 3936 c0 -8 5 -18 10 -21 6 -3 10 3 10 14 0 12 -4 21 -10 21 -5
0 -10 -6 -10 -14z"/>
<path d="M3171 3928 c0 -10 -7 -18 -13 -18 -10 0 -10 -2 -1 -8 6 -4 13 -23 15
-42 2 -29 7 -35 28 -37 25 -3 25 -3 3 7 -17 7 -23 18 -23 39 0 23 5 31 23 34
22 4 22 4 0 6 -12 0 -24 9 -26 19 -4 16 -5 16 -6 0z"/>
<path d="M552 3883 c-2 -40 -6 -53 -19 -56 -10 -3 0 -5 22 -5 22 0 32 2 23 5
-13 3 -18 18 -21 56 l-3 52 -2 -52z"/>
<path d="M636 3898 l-18 -33 21 25 21 25 0 -34 c0 -30 -2 -33 -25 -29 -14 3
-25 1 -25 -3 0 -5 11 -9 25 -9 14 0 25 -5 25 -10 0 -6 6 -5 14 2 8 7 10 15 5
16 -5 2 -9 21 -9 43 0 48 -10 49 -34 7z"/>
<path d="M2102 3860 c1 -44 1 -44 5 -7 4 40 29 60 43 36 5 -7 12 -10 15 -7 14
13 -7 28 -36 26 -28 -2 -29 -4 -27 -48z"/>
<path d="M2202 3898 c-17 -17 -15 -65 4 -72 9 -3 25 -5 37 -5 17 1 15 3 -7 8
-42 9 -46 31 -6 31 27 0 31 3 28 23 -3 25 -36 35 -56 15z m46 -15 c2 -8 -6
-13 -22 -13 -25 0 -33 10 -19 24 10 10 36 3 41 -11z"/>
<path d="M2292 3898 c-27 -27 -7 -84 26 -76 17 5 22 0 25 -21 2 -14 5 4 6 42
1 64 0 67 -22 67 -13 0 -28 -5 -35 -12z m48 -17 c0 -29 -11 -51 -25 -51 -17 0
-27 28 -20 51 8 26 45 25 45 0z"/>
<path d="M2380 3878 c0 -45 11 -59 43 -56 25 2 27 5 26 48 l-2 45 -6 -40 c-4
-27 -12 -41 -23 -43 -15 -3 -18 4 -18 37 0 23 -4 41 -10 41 -5 0 -10 -15 -10
-32z"/>
<path d="M2493 3903 c12 -3 17 -14 17 -38 0 -24 -5 -35 -17 -38 -10 -3 0 -5
22 -5 22 0 32 2 23 5 -13 3 -18 15 -18 44 0 34 -3 39 -22 38 -17 -1 -19 -2 -5
-6z"/>
<path d="M2582 3861 c1 -42 2 -43 5 -9 5 40 27 56 51 36 13 -11 14 -10 10 2
-3 9 -18 15 -36 16 -32 1 -32 1 -30 -45z"/>
<path d="M2682 3898 c-17 -17 -15 -65 4 -72 9 -3 25 -5 37 -5 17 1 15 3 -7 8
-42 9 -46 31 -6 31 27 0 31 3 28 23 -3 25 -36 35 -56 15z m46 -15 c2 -8 -6
-13 -22 -13 -25 0 -33 10 -19 24 10 10 36 3 41 -11z"/>
<path d="M2986 3901 c-4 -5 -2 -12 3 -15 5 -4 12 -2 15 3 4 5 2 12 -3 15 -5 4
-12 2 -15 -3z"/>
<path d="M3250 3863 c0 -24 5 -43 10 -43 6 0 10 16 10 35 0 39 25 59 42 34 8
-12 9 -11 5 1 -2 9 -16 15 -35 15 -31 1 -32 -1 -32 -42z"/>
<path d="M3354 3868 c1 -40 3 -43 29 -44 26 -1 27 1 26 45 l-2 46 -6 -40 c-9
-57 -38 -61 -44 -6 l-4 41 1 -42z"/>
<path d="M3452 3898 c-15 -15 -16 -50 0 -66 7 -7 23 -11 38 -11 24 1 24 2 -4
8 -42 9 -46 31 -6 31 27 0 31 3 28 23 -3 25 -36 35 -56 15z m46 -15 c2 -8 -6
-13 -22 -13 -25 0 -33 10 -19 24 10 10 36 3 41 -11z"/>
<path d="M2986 3841 c-4 -5 -2 -12 3 -15 5 -4 12 -2 15 3 4 5 2 12 -3 15 -5 4
-12 2 -15 -3z"/>
<path d="M3660 3825 c0 -14 -5 -25 -12 -25 -6 0 -9 -2 -6 -5 3 -3 13 -3 22 1
17 7 23 54 6 54 -5 0 -10 -11 -10 -25z"/>
<path d="M2012 3690 c0 -14 2 -19 5 -12 2 6 2 18 0 25 -3 6 -5 1 -5 -13z"/>
<path d="M2040 3690 c0 -11 5 -20 10 -20 6 0 10 9 10 20 0 11 -4 20 -10 20 -5
0 -10 -9 -10 -20z"/>
<path d="M2203 3703 c13 -4 17 -15 17 -58 0 -43 -4 -54 -17 -58 -10 -3 0 -5
22 -5 22 0 32 2 23 5 -15 4 -18 16 -18 64 0 55 -2 59 -22 58 -17 -1 -19 -2 -5
-6z"/>
<path d="M2583 3645 c0 -54 1 -61 6 -30 8 56 38 61 44 8 l4 -38 -1 40 c-1 33
-4 40 -21 40 -13 0 -22 9 -26 25 -4 14 -7 -6 -6 -45z"/>
<path d="M2783 3703 c13 -4 17 -15 17 -58 0 -43 -4 -54 -17 -58 -10 -3 0 -5
22 -5 22 0 32 2 23 5 -15 4 -18 16 -18 64 0 55 -2 59 -22 58 -17 -1 -19 -2 -5
-6z"/>
<path d="M2920 3690 c0 -13 -7 -20 -19 -20 -26 0 -43 -24 -39 -57 3 -24 7 -28
36 -28 l32 -1 0 63 c0 35 -2 63 -5 63 -3 0 -5 -9 -5 -20z m0 -54 c0 -30 -26
-54 -42 -38 -17 17 -1 62 22 62 14 0 20 -7 20 -24z"/>
<path d="M3160 3690 c0 -11 5 -20 10 -20 6 0 10 9 10 20 0 11 -4 20 -10 20 -5
0 -10 -9 -10 -20z"/>
<path d="M3200 3690 c0 -11 2 -20 4 -20 2 0 6 9 9 20 3 11 1 20 -4 20 -5 0 -9
-9 -9 -20z"/>
<path d="M3350 3703 c0 -5 5 -15 10 -23 8 -12 10 -11 10 8 0 12 -4 22 -10 22
-5 0 -10 -3 -10 -7z"/>
<path d="M3390 3689 c0 -11 5 -17 10 -14 6 3 10 13 10 21 0 8 -4 14 -10 14 -5
0 -10 -9 -10 -21z"/>
<path d="M4890 3703 c0 -5 5 -15 10 -23 8 -12 10 -11 10 8 0 12 -4 22 -10 22
-5 0 -10 -3 -10 -7z"/>
<path d="M4930 3689 c0 -11 5 -17 10 -14 6 3 10 13 10 21 0 8 -4 14 -10 14 -5
0 -10 -9 -10 -21z"/>
<path d="M3651 3688 c0 -10 -7 -18 -13 -18 -10 0 -10 -2 -1 -8 6 -4 13 -23 15
-42 2 -29 7 -35 28 -37 25 -3 25 -3 3 7 -17 7 -23 18 -23 39 0 23 5 31 23 34
22 4 22 4 0 6 -12 0 -24 9 -26 19 -4 16 -5 16 -6 0z"/>
<path d="M552 3643 c-2 -40 -6 -53 -19 -56 -10 -3 0 -5 22 -5 22 0 32 2 23 5
-13 3 -18 18 -21 56 l-3 52 -2 -52z"/>
<path d="M620 3666 c0 -18 6 -25 23 -28 31 -4 29 -40 -3 -49 -22 -6 -23 -7 -4
-8 45 -2 60 61 16 67 -31 5 -28 30 6 35 25 4 25 4 -5 6 -29 1 -33 -2 -33 -23z"/>
<path d="M3440 3635 l0 -55 38 1 c30 2 32 3 10 6 -19 3 -28 10 -28 23 0 13 9
20 28 23 l27 4 -27 2 c-21 1 -28 6 -28 20 0 14 8 21 28 24 22 3 20 4 -10 6
l-38 1 0 -55z"/>
<path d="M4010 3685 c0 -6 5 -16 11 -22 6 -6 17 -28 24 -49 11 -30 14 -34 15
-15 0 13 9 39 21 57 11 19 16 34 11 34 -5 0 -14 -12 -21 -27 l-13 -28 -24 30
c-13 17 -24 25 -24 20z"/>
<path d="M4502 3633 l1 -58 7 50 c4 28 8 44 8 36 1 -8 4 -12 7 -9 8 7 -5 38
-16 38 -5 0 -8 -26 -7 -57z"/>
<path d="M4562 3645 c-2 -36 -5 -46 -12 -35 -5 8 -10 11 -10 5 0 -16 18 -40
25 -33 3 3 4 30 2 59 l-3 54 -2 -50z"/>
<path d="M2090 3603 c0 -35 4 -63 10 -63 6 0 10 9 10 20 0 13 7 20 20 20 28 0
46 40 31 68 -8 14 -20 20 -41 20 l-30 -1 0 -64z m58 25 c-4 -44 -38 -53 -38
-10 0 32 7 42 27 42 10 0 13 -10 11 -32z"/>
<path d="M2296 3662 c-3 -5 4 -8 16 -8 12 1 23 -5 25 -11 3 -8 -4 -13 -15 -13
-23 0 -46 -25 -37 -40 3 -5 20 -9 36 -8 28 2 30 4 27 43 -2 32 -7 41 -25 43
-11 2 -24 -1 -27 -6z m42 -54 c-7 -19 -38 -22 -38 -4 0 10 9 16 21 16 12 0 19
-5 17 -12z"/>
<path d="M2396 3654 c-9 -8 -16 -20 -16 -25 0 -24 22 -49 43 -48 l22 0 -22 9
c-16 6 -23 18 -23 35 0 17 7 29 23 35 16 6 17 9 5 9 -9 1 -24 -6 -32 -15z"/>
<path d="M2494 3662 c-17 -11 -22 -35 -13 -59 6 -18 16 -23 41 -22 l33 1 -29
7 c-41 9 -46 31 -7 31 32 0 41 16 19 38 -14 14 -28 15 -44 4z m44 -19 c2 -8
-6 -13 -22 -13 -25 0 -33 10 -19 24 10 10 36 3 41 -11z"/>
<path d="M2676 3654 c-20 -19 -20 -35 -3 -59 17 -22 62 -14 69 13 13 49 -32
81 -66 46z m49 -29 c0 -23 -4 -30 -20 -30 -21 0 -31 25 -21 51 11 28 41 12 41
-21z"/>
<path d="M2972 3658 c-17 -17 -15 -65 4 -72 9 -3 25 -5 37 -5 17 1 15 3 -7 8
-42 9 -46 31 -6 31 27 0 31 3 28 23 -3 25 -36 35 -56 15z m46 -15 c2 -8 -6
-13 -22 -13 -25 0 -33 10 -19 24 10 10 36 3 41 -11z"/>
<path d="M3062 3621 c1 -42 2 -43 5 -9 5 40 27 56 51 36 13 -11 14 -10 10 2
-3 9 -18 15 -36 16 -32 1 -32 1 -30 -45z"/>
<path d="M3270 3655 c0 -9 5 -15 11 -13 6 2 11 8 11 13 0 5 -5 11 -11 13 -6 2
-11 -4 -11 -13z"/>
<path d="M3541 3625 l1 -50 8 40 c5 22 4 44 -1 50 -5 5 -9 -11 -8 -40z"/>
<path d="M3582 3658 c9 -7 19 -29 21 -48 3 -26 4 -24 3 10 -1 36 -5 45 -21 48
-18 4 -19 3 -3 -10z"/>
<path d="M3742 3658 c-15 -15 -16 -50 0 -66 7 -7 23 -11 38 -11 24 1 24 2 -4
8 -42 9 -46 31 -6 31 27 0 31 3 28 23 -3 25 -36 35 -56 15z m46 -15 c2 -8 -6
-13 -22 -13 -25 0 -33 10 -19 24 10 10 36 3 41 -11z"/>
<path d="M3832 3620 c1 -42 2 -43 5 -8 5 40 27 56 51 36 13 -11 14 -10 10 2
-3 9 -17 15 -36 15 -32 1 -32 0 -30 -45z"/>
<path d="M4120 3656 c-28 -35 11 -93 48 -70 35 22 22 84 -18 84 -10 0 -23 -7
-30 -14z m55 -15 c8 -26 -4 -51 -25 -51 -10 0 -21 7 -24 16 -10 25 3 54 24 54
10 0 21 -8 25 -19z"/>
<path d="M4214 3630 c1 -44 2 -45 34 -45 32 -1 32 0 30 45 -1 35 -2 38 -5 13
-5 -35 -29 -62 -43 -47 -5 5 -11 25 -13 44 -3 27 -4 25 -3 -10z"/>
<path d="M4310 3623 c0 -24 5 -43 10 -43 6 0 10 16 10 35 0 39 25 59 42 34 8
-12 9 -11 5 1 -2 9 -16 15 -35 15 -31 1 -32 -1 -32 -42z"/>
<path d="M4606 3662 c-3 -5 6 -7 19 -4 18 3 25 0 25 -12 0 -9 -8 -16 -19 -16
-23 0 -42 -22 -32 -38 4 -7 20 -11 35 -10 25 2 27 5 24 43 -2 32 -7 41 -25 43
-11 2 -24 -1 -27 -6z m42 -54 c-7 -19 -38 -22 -38 -4 0 10 9 16 21 16 12 0 19
-5 17 -12z"/>
<path d="M4692 3620 c1 -40 2 -41 5 -10 7 53 23 62 23 12 0 -23 5 -42 10 -42
6 0 10 18 10 40 0 53 18 51 23 -2 l4 -43 1 47 2 47 -40 -2 -40 -2 2 -45z"/>
<path d="M4802 3658 c-17 -17 -15 -65 4 -72 9 -3 25 -5 37 -5 17 1 15 3 -7 8
-41 9 -46 31 -7 31 19 0 31 5 31 13 0 16 -20 37 -35 37 -6 0 -16 -5 -23 -12z
m46 -15 c2 -8 -6 -13 -22 -13 -25 0 -33 10 -19 24 10 10 36 3 41 -11z"/>
<path d="M3270 3595 c0 -9 5 -15 11 -13 6 2 11 8 11 13 0 5 -5 11 -11 13 -6 2
-11 -4 -11 -13z"/>
<path d="M1822 3468 c9 -7 19 -26 21 -43 3 -21 4 -18 3 10 -1 31 -5 41 -21 43
-18 4 -19 3 -3 -10z"/>
<path d="M552 3413 c-2 -40 -6 -53 -19 -56 -10 -3 0 -5 22 -5 22 0 32 2 23 5
-13 3 -18 18 -21 56 l-3 52 -2 -52z"/>
<path d="M629 3443 c-12 -16 -12 -17 1 -7 8 7 24 14 35 17 19 4 19 5 -1 6 -12
0 -28 -7 -35 -16z"/>
<path d="M610 3401 c0 -25 6 -27 13 -6 4 8 2 17 -3 20 -6 4 -10 -3 -10 -14z"/>
<path d="M640 3416 c0 -2 9 -6 20 -9 11 -3 18 -1 14 4 -5 9 -34 13 -34 5z"/>
<path d="M1841 3363 c0 -19 -8 -36 -18 -42 -17 -10 -17 -10 0 -11 22 0 30 19
24 57 -4 27 -4 27 -6 -4z"/>
<path d="M670 3371 c0 -9 -9 -12 -25 -9 -13 3 -22 1 -19 -3 7 -13 42 -11 49 2
4 6 4 13 1 16 -3 4 -6 1 -6 -6z"/>
<path d="M1638 3233 c7 -3 16 -2 19 1 4 3 -2 6 -13 5 -11 0 -14 -3 -6 -6z"/>
<path d="M552 3173 c-2 -40 -6 -53 -19 -56 -10 -3 0 -5 22 -5 22 0 32 2 23 5
-13 3 -18 18 -21 56 l-3 52 -2 -52z"/>
<path d="M638 3213 c17 -2 32 -6 32 -9 0 -3 -9 -22 -20 -44 -28 -56 -24 -64 5
-10 33 62 32 70 -12 68 -37 -1 -37 -1 -5 -5z"/>
<path d="M1638 3073 c7 -3 16 -2 19 1 4 3 -2 6 -13 5 -11 0 -14 -3 -6 -6z"/>
<path d="M1052 2988 c9 -7 19 -26 21 -43 3 -21 4 -18 3 10 -1 31 -5 41 -21 43
-18 4 -19 3 -3 -10z"/>
<path d="M552 2933 c-2 -40 -6 -53 -19 -56 -10 -3 0 -5 22 -5 22 0 32 2 23 5
-13 3 -18 18 -21 56 l-3 52 -2 -52z"/>
<path d="M626 2971 c-3 -4 6 -6 19 -3 18 3 25 0 25 -11 0 -22 -18 -31 -35 -17
-11 9 -15 9 -15 1 0 -6 5 -11 12 -11 6 0 3 -6 -7 -14 -16 -12 -17 -16 -6 -30
17 -20 45 -21 60 -2 9 11 8 17 -3 29 -10 10 -12 17 -4 25 15 15 2 42 -21 42
-11 0 -22 -4 -25 -9z m42 -74 c2 -11 -3 -17 -16 -17 -26 0 -34 11 -20 27 14
17 32 12 36 -10z"/>
<path d="M1071 2883 c0 -19 -8 -36 -18 -42 -17 -10 -17 -10 0 -11 22 0 30 19
24 57 -4 27 -4 27 -6 -4z"/>
</g>
</svg>
